solid 
  facet normal 0.000000E+00 0.000000E+00 1.000000E+00
    outer loop
      vertex -5.825851E+00 -7.243950E+00 -7.629395E-06
      vertex -4.153625E+00 -6.722295E+00 -7.629395E-06
      vertex -9.934382E-01 -2.532270E+00 -7.629395E-06
    endloop
  endfacet
  facet normal -0.000000E+00 0.000000E+00 1.000000E+00
    outer loop
      vertex -9.934382E-01 -2.532270E+00 -7.629395E-06
      vertex -6.219553E+00 -1.272704E+00 -7.629395E-06
      vertex -5.825851E+00 -7.243950E+00 -7.629395E-06
    endloop
  endfacet
  facet normal 0.000000E+00 0.000000E+00 1.000000E+00
    outer loop
      vertex -4.153625E+00 -6.722295E+00 -7.629395E-06
      vertex -3.302352E+00 -9.347109E+00 -7.629395E-06
      vertex -9.934382E-01 -2.532270E+00 -7.629395E-06
    endloop
  endfacet
  facet normal 0.000000E+00 0.000000E+00 1.000000E+00
    outer loop
      vertex -3.302352E+00 -9.347109E+00 -7.629395E-06
      vertex -1.364589E+00 -7.325202E+00 -7.629395E-06
      vertex -9.934382E-01 -2.532270E+00 -7.629395E-06
    endloop
  endfacet
  facet normal 0.000000E+00 0.000000E+00 1.000000E+00
    outer loop
      vertex -1.364589E+00 -7.325202E+00 -7.629395E-06
      vertex -2.427101E-02 -8.663794E+00 -7.629395E-06
      vertex 1.934081E+00 -4.122311E+00 -7.629395E-06
    endloop
  endfacet
  facet normal -0.000000E+00 0.000000E+00 1.000000E+00
    outer loop
      vertex 1.934081E+00 -4.122311E+00 -7.629395E-06
      vertex -9.934382E-01 -2.532270E+00 -7.629395E-06
      vertex -1.364589E+00 -7.325202E+00 -7.629395E-06
    endloop
  endfacet
  facet normal 0.000000E+00 -0.000000E+00 1.000000E+00
    outer loop
      vertex -1.769170E+00 4.712646E+00 -7.629395E-06
      vertex -6.219553E+00 -1.272704E+00 -7.629395E-06
      vertex -9.934382E-01 -2.532270E+00 -7.629395E-06
    endloop
  endfacet
  facet normal 0.000000E+00 0.000000E+00 1.000000E+00
    outer loop
      vertex -9.934382E-01 -2.532270E+00 -7.629395E-06
      vertex 1.934081E+00 -4.122311E+00 -7.629395E-06
      vertex 2.273240E+00 4.520051E+00 -7.629395E-06
    endloop
  endfacet
  facet normal 0.000000E+00 0.000000E+00 1.000000E+00
    outer loop
      vertex -9.934382E-01 -2.532270E+00 -7.629395E-06
      vertex 2.273240E+00 4.520051E+00 -7.629395E-06
      vertex -1.769170E+00 4.712646E+00 -7.629395E-06
    endloop
  endfacet
  facet normal 7.926411E-01 -5.893650E-01 1.561057E-01
    outer loop
      vertex -6.219553E+00 -1.272704E+00 -7.629395E-06
      vertex -1.769170E+00 4.712646E+00 -7.629395E-06
      vertex -1.769792E+00 5.526250E+00 3.074848E+00
    endloop
  endfacet
  facet normal 8.062860E-01 -2.961062E-01 -5.120782E-01
    outer loop
      vertex -1.769792E+00 5.526250E+00 3.074848E+00
      vertex -3.793644E+00 -2.621311E+00 4.599499E+00
      vertex -6.219553E+00 -1.272704E+00 -7.629395E-06
    endloop
  endfacet
  facet normal 8.899853E-01 5.867931E-02 -4.521979E-01
    outer loop
      vertex -5.825851E+00 -7.243950E+00 -7.629395E-06
      vertex -6.219553E+00 -1.272704E+00 -7.629395E-06
      vertex -3.793644E+00 -2.621311E+00 4.599499E+00
    endloop
  endfacet
  facet normal 8.692628E-01 9.963661E-02 -4.842053E-01
    outer loop
      vertex -3.793644E+00 -2.621311E+00 4.599499E+00
      vertex -4.222729E+00 -6.983498E+00 2.931568E+00
      vertex -5.825851E+00 -7.243950E+00 -7.629395E-06
    endloop
  endfacet
  facet normal -7.839361E-01 3.380444E-01 -5.207401E-01
    outer loop
      vertex 1.934081E+00 -4.122311E+00 -7.629395E-06
      vertex -2.427101E-02 -8.663794E+00 -7.629395E-06
      vertex -1.314212E+00 -7.228958E+00 2.873344E+00
    endloop
  endfacet
  facet normal -7.769608E-01 5.747184E-01 -2.569645E-01
    outer loop
      vertex -1.314212E+00 -7.228958E+00 2.873344E+00
      vertex 8.317752E-01 -3.474779E+00 4.781185E+00
      vertex 1.934081E+00 -4.122311E+00 -7.629395E-06
    endloop
  endfacet
  facet normal -9.725839E-01 3.816782E-02 -2.293988E-01
    outer loop
      vertex 2.273240E+00 4.520051E+00 -7.629395E-06
      vertex 1.934081E+00 -4.122311E+00 -7.629395E-06
      vertex 8.317752E-01 -3.474779E+00 4.781185E+00
    endloop
  endfacet
  facet normal -9.737290E-01 4.168548E-02 -2.238620E-01
    outer loop
      vertex 8.317752E-01 -3.474779E+00 4.781185E+00
      vertex 1.570476E+00 5.440540E+00 3.228199E+00
      vertex 2.273240E+00 4.520051E+00 -7.629395E-06
    endloop
  endfacet
  facet normal -4.589255E-02 -9.632467E-01 2.646690E-01
    outer loop
      vertex -1.769170E+00 4.712646E+00 -7.629395E-06
      vertex 2.273240E+00 4.520051E+00 -7.629395E-06
      vertex 1.570476E+00 5.440540E+00 3.228199E+00
    endloop
  endfacet
  facet normal -3.652483E-02 -9.660875E-01 2.556185E-01
    outer loop
      vertex 1.570476E+00 5.440540E+00 3.228199E+00
      vertex -1.769792E+00 5.526250E+00 3.074848E+00
      vertex -1.769170E+00 4.712646E+00 -7.629395E-06
    endloop
  endfacet
  facet normal -2.968962E-01 9.517351E-01 7.780086E-02
    outer loop
      vertex -4.153625E+00 -6.722295E+00 -7.629395E-06
      vertex -5.825851E+00 -7.243950E+00 -7.629395E-06
      vertex -4.222729E+00 -6.983498E+00 2.931568E+00
    endloop
  endfacet
  facet normal 9.500422E-01 3.081151E-01 4.984777E-02
    outer loop
      vertex -3.302352E+00 -9.347109E+00 -7.629395E-06
      vertex -4.153625E+00 -6.722295E+00 -7.629395E-06
      vertex -4.222729E+00 -6.983498E+00 2.931568E+00
    endloop
  endfacet
  facet normal -7.219300E-01 6.918861E-01 -1.051775E-02
    outer loop
      vertex -1.364589E+00 -7.325202E+00 -7.629395E-06
      vertex -3.302352E+00 -9.347109E+00 -7.629395E-06
      vertex -1.314212E+00 -7.228958E+00 2.873344E+00
    endloop
  endfacet
  facet normal 7.061911E-01 7.071021E-01 -3.606586E-02
    outer loop
      vertex -2.427101E-02 -8.663794E+00 -7.629395E-06
      vertex -1.364589E+00 -7.325202E+00 -7.629395E-06
      vertex -1.314212E+00 -7.228958E+00 2.873344E+00
    endloop
  endfacet
  facet normal 5.395659E-02 7.855615E-01 -6.164266E-01
    outer loop
      vertex -3.302352E+00 -9.347109E+00 -7.629395E-06
      vertex -4.222729E+00 -6.983498E+00 2.931568E+00
      vertex -1.314212E+00 -7.228958E+00 2.873344E+00
    endloop
  endfacet
  facet normal 9.125050E-01 -1.558945E-01 3.781951E-01
    outer loop
      vertex -3.793644E+00 -2.621311E+00 4.599499E+00
      vertex -1.769792E+00 5.526250E+00 3.074848E+00
      vertex -6.012956E+00 4.655908E+00 1.295395E+01
    endloop
  endfacet
  facet normal 9.115939E-01 -1.577895E-01 3.796038E-01
    outer loop
      vertex -6.012956E+00 4.655908E+00 1.295395E+01
      vertex -6.422533E+00 -4.340085E+00 1.019816E+01
      vertex -3.793644E+00 -2.621311E+00 4.599499E+00
    endloop
  endfacet
  facet normal 1.423184E-01 9.255134E-01 3.509564E-01
    outer loop
      vertex -3.793644E+00 -2.621311E+00 4.599499E+00
      vertex -6.422533E+00 -4.340085E+00 1.019816E+01
      vertex 1.327909E+00 -4.754704E+00 8.148637E+00
    endloop
  endfacet
  facet normal 1.587104E-01 9.304482E-01 3.302683E-01
    outer loop
      vertex 1.327909E+00 -4.754704E+00 8.148637E+00
      vertex 8.317752E-01 -3.474779E+00 4.781185E+00
      vertex -3.793644E+00 -2.621311E+00 4.599499E+00
    endloop
  endfacet
  facet normal 6.551905E-01 1.938465E-01 -7.301705E-01
    outer loop
      vertex -6.422533E+00 -4.340085E+00 1.019816E+01
      vertex -6.012956E+00 4.655908E+00 1.295395E+01
      vertex -1.896016E+00 6.549552E+00 1.715085E+01
    endloop
  endfacet
  facet normal 6.551912E-01 1.938459E-01 -7.301701E-01
    outer loop
      vertex -1.896016E+00 6.549552E+00 1.715085E+01
      vertex -2.392122E+00 -1.662399E+00 1.452558E+01
      vertex -6.422533E+00 -4.340085E+00 1.019816E+01
    endloop
  endfacet
  facet normal 4.969482E-01 -8.621757E-01 -9.846583E-02
    outer loop
      vertex -6.012956E+00 4.655908E+00 1.295395E+01
      vertex 1.459106E+00 9.556405E+00 7.755572E+00
      vertex -1.896016E+00 6.549552E+00 1.715085E+01
    endloop
  endfacet
  facet normal -2.109290E-02 -9.950875E-01 -9.672616E-02
    outer loop
      vertex -6.012956E+00 4.655908E+00 1.295395E+01
      vertex -1.769792E+00 5.526250E+00 3.074848E+00
      vertex 1.570476E+00 5.440540E+00 3.228199E+00
    endloop
  endfacet
  facet normal 6.904221E-01 -5.267392E-01 4.958459E-01
    outer loop
      vertex 1.570476E+00 5.440540E+00 3.228199E+00
      vertex 1.459106E+00 9.556405E+00 7.755572E+00
      vertex -6.012956E+00 4.655908E+00 1.295395E+01
    endloop
  endfacet
  facet normal 7.398096E-01 -6.709968E-01 4.944640E-02
    outer loop
      vertex -1.896016E+00 6.549552E+00 1.715085E+01
      vertex 1.459106E+00 9.556405E+00 7.755572E+00
      vertex 2.194642E+00 1.102603E+01 1.669374E+01
    endloop
  endfacet
  facet normal 7.164056E-01 -6.733216E-01 -1.827596E-01
    outer loop
      vertex 2.194642E+00 1.102603E+01 1.669374E+01
      vertex 1.482556E+00 7.786834E+00 2.583625E+01
      vertex -1.896016E+00 6.549552E+00 1.715085E+01
    endloop
  endfacet
  facet normal 2.671091E-01 -9.147005E-01 -3.032749E-01
    outer loop
      vertex 1.482556E+00 7.786834E+00 2.583625E+01
      vertex 2.194642E+00 1.102603E+01 1.669374E+01
      vertex 7.873002E+00 1.394034E+01 1.290518E+01
    endloop
  endfacet
  facet normal 2.691424E-01 -9.144729E-01 -3.021617E-01
    outer loop
      vertex 7.873002E+00 1.394034E+01 1.290518E+01
      vertex 7.873002E+00 6.943192E+00 3.408159E+01
      vertex 1.482556E+00 7.786834E+00 2.583625E+01
    endloop
  endfacet
  facet normal -7.763495E-02 8.785431E-01 -4.713119E-01
    outer loop
      vertex 1.327909E+00 -4.754704E+00 8.148637E+00
      vertex -6.422533E+00 -4.340085E+00 1.019816E+01
      vertex -2.392122E+00 -1.662399E+00 1.452558E+01
    endloop
  endfacet
  facet normal 5.059637E-01 -8.568262E-01 9.924433E-02
    outer loop
      vertex 7.873002E+00 1.394034E+01 1.290518E+01
      vertex 2.194642E+00 1.102603E+01 1.669374E+01
      vertex 1.459106E+00 9.556405E+00 7.755572E+00
    endloop
  endfacet
  facet normal 7.218562E-01 -3.667026E-01 -5.869010E-01
    outer loop
      vertex 1.459106E+00 9.556405E+00 7.755572E+00
      vertex 2.704501E+00 1.466823E+01 6.093409E+00
      vertex 7.873002E+00 1.394034E+01 1.290518E+01
    endloop
  endfacet
  facet normal 7.540846E-01 -2.658297E-01 -6.005755E-01
    outer loop
      vertex 7.873002E+00 1.394034E+01 1.290518E+01
      vertex 2.704501E+00 1.466823E+01 6.093409E+00
      vertex 3.766533E+00 2.080705E+01 4.709705E+00
    endloop
  endfacet
  facet normal 2.059516E-01 -6.968220E-01 -6.870393E-01
    outer loop
      vertex 3.766533E+00 2.080705E+01 4.709705E+00
      vertex 7.873002E+00 1.882026E+01 7.955769E+00
      vertex 7.873002E+00 1.394034E+01 1.290518E+01
    endloop
  endfacet
  facet normal 8.862196E-01 -4.949500E-02 4.606138E-01
    outer loop
      vertex 3.766533E+00 2.080705E+01 4.709705E+00
      vertex 2.704501E+00 1.466823E+01 6.093409E+00
      vertex 5.896623E+00 1.511695E+01 -7.629395E-06
    endloop
  endfacet
  facet normal 8.807861E-01 -5.913817E-02 4.698069E-01
    outer loop
      vertex 5.896623E+00 1.511695E+01 -7.629395E-06
      vertex 6.401119E+00 2.263077E+01 -7.629395E-06
      vertex 3.766533E+00 2.080705E+01 4.709705E+00
    endloop
  endfacet
  facet normal 0.000000E+00 -0.000000E+00 1.000000E+00
    outer loop
      vertex 6.401119E+00 2.263077E+01 -7.629395E-06
      vertex 5.896623E+00 1.511695E+01 -7.629395E-06
      vertex 7.873002E+00 1.968581E+01 -7.629395E-06
    endloop
  endfacet
  facet normal 0.000000E+00 0.000000E+00 1.000000E+00
    outer loop
      vertex 7.873002E+00 1.968581E+01 -7.629395E-06
      vertex 7.873002E+00 2.247992E+01 -7.629395E-06
      vertex 6.401119E+00 2.263077E+01 -7.629395E-06
    endloop
  endfacet
  facet normal 6.758748E-01 4.716242E-01 -5.663602E-01
    outer loop
      vertex 7.873002E+00 1.882026E+01 7.955769E+00
      vertex 3.766533E+00 2.080705E+01 4.709705E+00
      vertex 4.465139E+00 2.492690E+01 8.974107E+00
    endloop
  endfacet
  facet normal 6.110501E-01 4.496442E-01 -6.514890E-01
    outer loop
      vertex 4.465139E+00 2.492690E+01 8.974107E+00
      vertex 7.873002E+00 2.292252E+01 1.078706E+01
      vertex 7.873002E+00 1.882026E+01 7.955769E+00
    endloop
  endfacet
  facet normal 8.422078E-01 -4.500761E-01 2.968458E-01
    outer loop
      vertex 4.465139E+00 2.492690E+01 8.974107E+00
      vertex 3.766533E+00 2.080705E+01 4.709705E+00
      vertex 6.401119E+00 2.263077E+01 -7.629395E-06
    endloop
  endfacet
  facet normal 8.641406E-01 -4.103008E-01 2.914005E-01
    outer loop
      vertex 6.401119E+00 2.263077E+01 -7.629395E-06
      vertex 6.620390E+00 2.830752E+01 7.342793E+00
      vertex 4.465139E+00 2.492690E+01 8.974107E+00
    endloop
  endfacet
  facet normal -8.069928E-02 -7.873927E-01 6.111468E-01
    outer loop
      vertex 6.620390E+00 2.830752E+01 7.342793E+00
      vertex 6.401119E+00 2.263077E+01 -7.629395E-06
      vertex 7.873002E+00 2.247992E+01 -7.629395E-06
    endloop
  endfacet
  facet normal 1.520507E-01 -7.613881E-01 6.302133E-01
    outer loop
      vertex 7.873002E+00 2.247992E+01 -7.629395E-06
      vertex 7.873002E+00 2.847097E+01 7.238049E+00
      vertex 6.620390E+00 2.830752E+01 7.342793E+00
    endloop
  endfacet
  facet normal 8.583518E-01 -5.058441E-01 8.575466E-02
    outer loop
      vertex 4.465139E+00 2.492690E+01 8.974107E+00
      vertex 6.620390E+00 2.830752E+01 7.342793E+00
      vertex 6.433774E+00 2.944192E+01 1.590222E+01
    endloop
  endfacet
  facet normal 9.728091E-01 -1.290466E-01 -1.923262E-01
    outer loop
      vertex 6.433774E+00 2.944192E+01 1.590222E+01
      vertex 6.193508E+00 2.789402E+01 1.572553E+01
      vertex 4.465139E+00 2.492690E+01 8.974107E+00
    endloop
  endfacet
  facet normal 1.391741E-01 -9.812842E-01 1.330859E-01
    outer loop
      vertex 6.433774E+00 2.944192E+01 1.590222E+01
      vertex 6.620390E+00 2.830752E+01 7.342793E+00
      vertex 7.873002E+00 2.847097E+01 7.238049E+00
    endloop
  endfacet
  facet normal 3.240712E-01 -9.326854E-01 1.583534E-01
    outer loop
      vertex 7.873002E+00 2.847097E+01 7.238049E+00
      vertex 7.873002E+00 2.994200E+01 1.590222E+01
      vertex 6.433774E+00 2.944192E+01 1.590222E+01
    endloop
  endfacet
  facet normal 8.880868E-01 -6.856839E-02 4.545329E-01
    outer loop
      vertex 2.704501E+00 1.466823E+01 6.093409E+00
      vertex 1.459106E+00 9.556405E+00 7.755572E+00
      vertex 5.333638E+00 8.327760E+00 -7.629395E-06
    endloop
  endfacet
  facet normal 8.856325E-01 -7.343988E-02 4.585430E-01
    outer loop
      vertex 5.333638E+00 8.327760E+00 -7.629395E-06
      vertex 5.896623E+00 1.511695E+01 -7.629395E-06
      vertex 2.704501E+00 1.466823E+01 6.093409E+00
    endloop
  endfacet
  facet normal 2.523639E-01 -9.231396E-01 -2.900444E-01
    outer loop
      vertex 1.482556E+00 7.786834E+00 2.583625E+01
      vertex 7.873002E+00 6.943192E+00 3.408159E+01
      vertex 2.451997E+00 5.867814E+00 3.278751E+01
    endloop
  endfacet
  facet normal 1.677441E-01 -9.795284E-01 1.112930E-01
    outer loop
      vertex 2.451997E+00 5.867814E+00 3.278751E+01
      vertex 7.873002E+00 6.943192E+00 3.408159E+01
      vertex 7.873002E+00 7.960893E+00 4.303873E+01
    endloop
  endfacet
  facet normal 1.739778E-01 -9.788256E-01 1.078530E-01
    outer loop
      vertex 7.873002E+00 7.960893E+00 4.303873E+01
      vertex 1.202965E-01 6.329054E+00 4.073479E+01
      vertex 2.451997E+00 5.867814E+00 3.278751E+01
    endloop
  endfacet
  facet normal 3.274076E-01 -7.568718E-01 -5.656407E-01
    outer loop
      vertex 1.202965E-01 6.329054E+00 4.073479E+01
      vertex 7.873002E+00 7.960893E+00 4.303873E+01
      vertex 7.873002E+00 9.063573E-01 5.247825E+01
    endloop
  endfacet
  facet normal 3.274325E-01 -7.568546E-01 -5.656493E-01
    outer loop
      vertex 7.873002E+00 9.063573E-01 5.247825E+01
      vertex 1.052649E+00 8.051144E-01 4.866568E+01
      vertex 1.202965E-01 6.329054E+00 4.073479E+01
    endloop
  endfacet
  facet normal 4.746080E-01 2.106272E-01 -8.546247E-01
    outer loop
      vertex 1.052649E+00 8.051144E-01 4.866568E+01
      vertex 7.873002E+00 9.063573E-01 5.247825E+01
      vertex 7.873002E+00 -9.761865E+00 4.984900E+01
    endloop
  endfacet
  facet normal 4.672377E-01 2.052712E-01 -8.599725E-01
    outer loop
      vertex 7.873002E+00 -9.761865E+00 4.984900E+01
      vertex 1.178592E+00 -5.929452E+00 4.712659E+01
      vertex 1.052649E+00 8.051144E-01 4.866568E+01
    endloop
  endfacet
  facet normal 3.139722E-01 9.293538E-01 -1.942238E-01
    outer loop
      vertex 3.654094E+00 -6.770725E+00 4.077166E+01
      vertex 2.531975E+00 -6.413906E+00 4.066507E+01
      vertex 2.205635E+00 -5.694691E+00 4.357895E+01
    endloop
  endfacet
  facet normal 7.301003E-01 6.729396E-01 1.187678E-01
    outer loop
      vertex 2.205635E+00 -5.694691E+00 4.357895E+01
      vertex 3.459738E+00 -7.039381E+00 4.348864E+01
      vertex 3.654094E+00 -6.770725E+00 4.077166E+01
    endloop
  endfacet
  facet normal 2.568482E-01 9.647967E-01 -5.653685E-02
    outer loop
      vertex 3.941162E+00 -1.381451E+01 3.866740E+01
      vertex 7.873002E+00 -1.477258E+01 4.018044E+01
      vertex 7.873002E+00 -1.510763E+01 3.446286E+01
    endloop
  endfacet
  facet normal 2.700154E-01 9.618807E-01 -4.332680E-02
    outer loop
      vertex 7.873002E+00 -1.510763E+01 3.446286E+01
      vertex 3.223838E+00 -1.380404E+01 3.442951E+01
      vertex 3.941162E+00 -1.381451E+01 3.866740E+01
    endloop
  endfacet
  facet normal 2.000677E-01 7.302390E-01 6.532411E-01
    outer loop
      vertex 3.223838E+00 -1.380404E+01 3.442951E+01
      vertex 7.873002E+00 -1.510763E+01 3.446286E+01
      vertex 7.873002E+00 -1.276491E+01 3.184401E+01
    endloop
  endfacet
  facet normal 1.917765E-01 7.415667E-01 6.428847E-01
    outer loop
      vertex 7.873002E+00 -1.276491E+01 3.184401E+01
      vertex 3.658058E+00 -1.161032E+01 3.176952E+01
      vertex 3.223838E+00 -1.380404E+01 3.442951E+01
    endloop
  endfacet
  facet normal 1.675353E-01 6.604504E-01 7.319407E-01
    outer loop
      vertex 7.873002E+00 -1.276491E+01 3.184401E+01
      vertex 7.873002E+00 -7.468148E+00 2.706459E+01
      vertex 4.847958E+00 -9.335992E+00 2.944240E+01
    endloop
  endfacet
  facet normal 1.680507E-01 6.606782E-01 7.316169E-01
    outer loop
      vertex 4.847958E+00 -9.335992E+00 2.944240E+01
      vertex 3.658058E+00 -1.161032E+01 3.176952E+01
      vertex 7.873002E+00 -1.276491E+01 3.184401E+01
    endloop
  endfacet
  facet normal 0.000000E+00 -0.000000E+00 1.000000E+00
    outer loop
      vertex 5.896623E+00 1.511695E+01 -7.629395E-06
      vertex 5.333638E+00 8.327760E+00 -7.629395E-06
      vertex 7.873002E+00 7.876338E+00 -7.629395E-06
    endloop
  endfacet
  facet normal 0.000000E+00 0.000000E+00 1.000000E+00
    outer loop
      vertex 7.873002E+00 7.876338E+00 -7.629395E-06
      vertex 7.873002E+00 1.968581E+01 -7.629395E-06
      vertex 5.896623E+00 1.511695E+01 -7.629395E-06
    endloop
  endfacet
  facet normal 8.326899E-01 -4.929629E-01 -2.522202E-01
    outer loop
      vertex 1.482556E+00 7.786834E+00 2.583625E+01
      vertex 2.451997E+00 5.867814E+00 3.278751E+01
      vertex -3.563200E+00 -1.360336E+00 2.705607E+01
    endloop
  endfacet
  facet normal 8.326899E-01 -4.929629E-01 -2.522202E-01
    outer loop
      vertex -3.563200E+00 -1.360336E+00 2.705607E+01
      vertex -4.907880E+00 -1.190751E+00 2.228524E+01
      vertex 1.482556E+00 7.786834E+00 2.583625E+01
    endloop
  endfacet
  facet normal 7.393272E-01 6.473271E-01 -1.853725E-01
    outer loop
      vertex -4.907880E+00 -1.190751E+00 2.228524E+01
      vertex -3.563200E+00 -1.360336E+00 2.705607E+01
      vertex 1.977329E+00 -8.947358E+00 2.265940E+01
    endloop
  endfacet
  facet normal 7.395435E-01 6.476087E-01 -1.835168E-01
    outer loop
      vertex 1.977329E+00 -8.947358E+00 2.265940E+01
      vertex -2.676959E-01 -7.426274E+00 1.898003E+01
      vertex -4.907880E+00 -1.190751E+00 2.228524E+01
    endloop
  endfacet
  facet normal 7.660688E-01 -1.401061E-01 -6.273029E-01
    outer loop
      vertex -3.563200E+00 -1.360336E+00 2.705607E+01
      vertex 2.451997E+00 5.867814E+00 3.278751E+01
      vertex 8.067703E-02 -2.849751E-01 3.126583E+01
    endloop
  endfacet
  facet normal 3.806259E-01 7.618818E-01 -5.240801E-01
    outer loop
      vertex 8.067703E-02 -2.849751E-01 3.126583E+01
      vertex 4.327841E-01 -3.406286E+00 2.698395E+01
      vertex -3.563200E+00 -1.360336E+00 2.705607E+01
    endloop
  endfacet
  facet normal 3.134386E-01 6.370084E-01 -7.042560E-01
    outer loop
      vertex 1.977329E+00 -8.947358E+00 2.265940E+01
      vertex -3.563200E+00 -1.360336E+00 2.705607E+01
      vertex 4.327841E-01 -3.406286E+00 2.698395E+01
    endloop
  endfacet
  facet normal -1.569542E-01 5.800688E-01 -7.993032E-01
    outer loop
      vertex 4.327841E-01 -3.406286E+00 2.698395E+01
      vertex 3.291585E+00 -7.796353E+00 2.323664E+01
      vertex 1.977329E+00 -8.947358E+00 2.265940E+01
    endloop
  endfacet
  facet normal 7.743102E-01 6.137632E-01 1.540730E-01
    outer loop
      vertex 1.327909E+00 -4.754704E+00 8.148637E+00
      vertex -2.392122E+00 -1.662399E+00 1.452558E+01
      vertex 2.124064E+00 -7.781785E+00 1.620611E+01
    endloop
  endfacet
  facet normal 2.760032E-01 9.084170E-01 3.140077E-01
    outer loop
      vertex 1.327909E+00 -4.754704E+00 8.148637E+00
      vertex 2.124064E+00 -7.781785E+00 1.620611E+01
      vertex 7.873002E+00 -9.639979E+00 1.652869E+01
    endloop
  endfacet
  facet normal 2.759256E-01 9.084192E-01 3.140695E-01
    outer loop
      vertex 7.873002E+00 -9.639979E+00 1.652869E+01
      vertex 7.873002E+00 -6.231907E+00 6.671129E+00
      vertex 1.327909E+00 -4.754704E+00 8.148637E+00
    endloop
  endfacet
  facet normal 7.512617E-01 2.314225E-01 6.181015E-01
    outer loop
      vertex -4.907880E+00 -1.190751E+00 2.228524E+01
      vertex -2.676959E-01 -7.426274E+00 1.898003E+01
      vertex 2.124064E+00 -7.781785E+00 1.620611E+01
    endloop
  endfacet
  facet normal 7.590180E-01 2.587503E-01 5.974445E-01
    outer loop
      vertex 2.124064E+00 -7.781785E+00 1.620611E+01
      vertex -1.337520E+00 -6.098359E-01 1.749771E+01
      vertex -4.907880E+00 -1.190751E+00 2.228524E+01
    endloop
  endfacet
  facet normal 8.091488E-01 -1.891014E-01 5.563442E-01
    outer loop
      vertex 6.193508E+00 2.789402E+01 1.572553E+01
      vertex 6.433774E+00 2.944192E+01 1.590222E+01
      vertex 4.630967E+00 2.971852E+01 1.861824E+01
    endloop
  endfacet
  facet normal 9.074233E-01 1.631606E-01 3.872489E-01
    outer loop
      vertex 4.630967E+00 2.971852E+01 1.861824E+01
      vertex 5.319249E+00 2.668492E+01 1.828357E+01
      vertex 6.193508E+00 2.789402E+01 1.572553E+01
    endloop
  endfacet
  facet normal 5.806502E-01 6.413053E-01 5.015703E-01
    outer loop
      vertex 7.873002E+00 2.643650E+01 1.564481E+01
      vertex 6.193508E+00 2.789402E+01 1.572553E+01
      vertex 5.319249E+00 2.668492E+01 1.828357E+01
    endloop
  endfacet
  facet normal 5.612849E-01 6.744153E-01 4.797117E-01
    outer loop
      vertex 5.319249E+00 2.668492E+01 1.828357E+01
      vertex 7.873002E+00 2.425284E+01 1.871477E+01
      vertex 7.873002E+00 2.643650E+01 1.564481E+01
    endloop
  endfacet
  facet normal 2.999936E-01 -8.633889E-01 4.056643E-01
    outer loop
      vertex 6.433774E+00 2.944192E+01 1.590222E+01
      vertex 7.873002E+00 2.994200E+01 1.590222E+01
      vertex 7.873002E+00 3.220989E+01 2.072906E+01
    endloop
  endfacet
  facet normal 4.110074E-01 -8.383173E-01 3.581857E-01
    outer loop
      vertex 7.873002E+00 3.220989E+01 2.072906E+01
      vertex 4.630967E+00 2.971852E+01 1.861824E+01
      vertex 6.433774E+00 2.944192E+01 1.590222E+01
    endloop
  endfacet
  facet normal 9.625186E-01 2.335873E-01 -1.378223E-01
    outer loop
      vertex 5.319249E+00 2.668492E+01 1.828357E+01
      vertex 4.630967E+00 2.971852E+01 1.861824E+01
      vertex 5.260059E+00 2.969850E+01 2.297775E+01
    endloop
  endfacet
  facet normal 9.625188E-01 2.335867E-01 -1.378219E-01
    outer loop
      vertex 5.260059E+00 2.969850E+01 2.297775E+01
      vertex 6.210729E+00 2.709984E+01 2.521271E+01
      vertex 5.319249E+00 2.668492E+01 1.828357E+01
    endloop
  endfacet
  facet normal 6.952091E-01 7.066289E-01 -1.317571E-01
    outer loop
      vertex 7.873002E+00 2.425284E+01 1.871477E+01
      vertex 5.319249E+00 2.668492E+01 1.828357E+01
      vertex 6.210729E+00 2.709984E+01 2.521271E+01
    endloop
  endfacet
  facet normal 6.452561E-01 -7.578353E-01 -9.659294E-02
    outer loop
      vertex 5.260059E+00 2.969850E+01 2.297775E+01
      vertex 4.630967E+00 2.971852E+01 1.861824E+01
      vertex 7.873002E+00 3.220989E+01 2.072906E+01
    endloop
  endfacet
  facet normal 6.327313E-01 -7.651279E-01 -1.192912E-01
    outer loop
      vertex 7.873002E+00 3.220989E+01 2.072906E+01
      vertex 6.922637E+00 3.021974E+01 2.845297E+01
      vertex 5.260059E+00 2.969850E+01 2.297775E+01
    endloop
  endfacet
  facet normal 5.145147E-01 8.565405E-01 4.016223E-02
    outer loop
      vertex -2.676959E-01 -7.426274E+00 1.898003E+01
      vertex 1.977329E+00 -8.947358E+00 2.265940E+01
      vertex 3.907549E+00 -1.004076E+01 2.125048E+01
    endloop
  endfacet
  facet normal 4.102792E-02 9.871810E-01 1.542412E-01
    outer loop
      vertex 3.907549E+00 -1.004076E+01 2.125048E+01
      vertex 4.299018E+00 -9.846755E+00 1.990468E+01
      vertex 2.713599E+00 -9.634350E+00 1.896696E+01
    endloop
  endfacet
  facet normal 5.864959E-01 7.928540E-01 -1.655447E-01
    outer loop
      vertex -2.676959E-01 -7.426274E+00 1.898003E+01
      vertex 3.907549E+00 -1.004076E+01 2.125048E+01
      vertex 2.713599E+00 -9.634350E+00 1.896696E+01
    endloop
  endfacet
  facet normal -2.299351E-01 7.904081E-01 5.677896E-01
    outer loop
      vertex 4.783104E+00 -8.689346E+00 1.848952E+01
      vertex 2.713599E+00 -9.634350E+00 1.896696E+01
      vertex 4.299018E+00 -9.846755E+00 1.990468E+01
    endloop
  endfacet
  facet normal -2.479893E-01 7.897462E-01 5.610724E-01
    outer loop
      vertex 4.299018E+00 -9.846755E+00 1.990468E+01
      vertex 6.230495E+00 -9.190197E+00 1.983423E+01
      vertex 4.783104E+00 -8.689346E+00 1.848952E+01
    endloop
  endfacet
  facet normal 1.513842E-01 8.705568E-01 -4.682026E-01
    outer loop
      vertex 3.907549E+00 -1.004076E+01 2.125048E+01
      vertex 1.977329E+00 -8.947358E+00 2.265940E+01
      vertex 6.485684E+00 -9.345484E+00 2.337683E+01
    endloop
  endfacet
  facet normal -5.777342E-01 3.502321E-01 -7.372657E-01
    outer loop
      vertex 3.907549E+00 -1.004076E+01 2.125048E+01
      vertex 4.985608E+00 -8.806319E+00 2.099211E+01
      vertex 6.230495E+00 -9.190197E+00 1.983423E+01
    endloop
  endfacet
  facet normal -3.201210E-01 9.463863E-01 4.330850E-02
    outer loop
      vertex 6.230495E+00 -9.190197E+00 1.983423E+01
      vertex 4.299018E+00 -9.846755E+00 1.990468E+01
      vertex 3.907549E+00 -1.004076E+01 2.125048E+01
    endloop
  endfacet
  facet normal 6.566997E-01 -6.308872E-01 4.131911E-01
    outer loop
      vertex 1.482556E+00 7.786834E+00 2.583625E+01
      vertex -4.907880E+00 -1.190751E+00 2.228524E+01
      vertex -1.337520E+00 -6.098359E-01 1.749771E+01
    endloop
  endfacet
  facet normal 9.279364E-01 5.452280E-02 -3.687294E-01
    outer loop
      vertex -1.896016E+00 6.549552E+00 1.715085E+01
      vertex 1.482556E+00 7.786834E+00 2.583625E+01
      vertex -1.337520E+00 -6.098359E-01 1.749771E+01
    endloop
  endfacet
  facet normal 9.345573E-01 5.587899E-02 -3.513975E-01
    outer loop
      vertex -1.337520E+00 -6.098359E-01 1.749771E+01
      vertex -2.392122E+00 -1.662399E+00 1.452558E+01
      vertex -1.896016E+00 6.549552E+00 1.715085E+01
    endloop
  endfacet
  facet normal 9.458977E-01 7.746848E-02 -3.150813E-01
    outer loop
      vertex 1.178592E+00 -5.929452E+00 4.712659E+01
      vertex -1.346262E+00 -6.205164E+00 3.947900E+01
      vertex -2.881297E+00 1.719835E+00 3.681922E+01
    endloop
  endfacet
  facet normal 9.473671E-01 8.805961E-02 -3.078002E-01
    outer loop
      vertex -2.881297E+00 1.719835E+00 3.681922E+01
      vertex 1.052649E+00 8.051144E-01 4.866568E+01
      vertex 1.178592E+00 -5.929452E+00 4.712659E+01
    endloop
  endfacet
  facet normal 7.038655E-01 -6.666699E-01 2.452033E-01
    outer loop
      vertex 2.451997E+00 5.867814E+00 3.278751E+01
      vertex 1.202965E-01 6.329054E+00 4.073479E+01
      vertex -2.881297E+00 1.719835E+00 3.681922E+01
    endloop
  endfacet
  facet normal 7.316775E-01 -4.156143E-01 5.402896E-01
    outer loop
      vertex -2.881297E+00 1.719835E+00 3.681922E+01
      vertex 8.067703E-02 -2.849751E-01 3.126583E+01
      vertex 2.451997E+00 5.867814E+00 3.278751E+01
    endloop
  endfacet
  facet normal 8.948777E-01 -3.099777E-01 -3.211040E-01
    outer loop
      vertex 1.202965E-01 6.329054E+00 4.073479E+01
      vertex 1.052649E+00 8.051144E-01 4.866568E+01
      vertex -2.881297E+00 1.719835E+00 3.681922E+01
    endloop
  endfacet
  facet normal 1.954358E-02 4.440583E-01 -8.957847E-01
    outer loop
      vertex 8.317752E-01 -3.474779E+00 4.781185E+00
      vertex -1.314212E+00 -7.228958E+00 2.873344E+00
      vertex -4.222729E+00 -6.983498E+00 2.931568E+00
    endloop
  endfacet
  facet normal 1.006004E-01 3.466837E-01 -9.325717E-01
    outer loop
      vertex -4.222729E+00 -6.983498E+00 2.931568E+00
      vertex -3.793644E+00 -2.621311E+00 4.599499E+00
      vertex 8.317752E-01 -3.474779E+00 4.781185E+00
    endloop
  endfacet
  facet normal -0.000000E+00 0.000000E+00 1.000000E+00
    outer loop
      vertex 7.873002E+00 7.876338E+00 -7.629395E-06
      vertex 5.333638E+00 8.327760E+00 -7.629395E-06
      vertex 3.156504E+00 6.484767E-01 -7.629395E-06
    endloop
  endfacet
  facet normal 0.000000E+00 0.000000E+00 1.000000E+00
    outer loop
      vertex 3.156504E+00 6.484767E-01 -7.629395E-06
      vertex 7.873002E+00 -1.107627E+00 -7.629395E-06
      vertex 7.873002E+00 7.876338E+00 -7.629395E-06
    endloop
  endfacet
  facet normal 8.966092E-01 5.036259E-02 4.399495E-01
    outer loop
      vertex 5.333638E+00 8.327760E+00 -7.629395E-06
      vertex 1.459106E+00 9.556405E+00 7.755572E+00
      vertex 3.037519E+00 5.567566E+00 4.995411E+00
    endloop
  endfacet
  facet normal -5.914519E-01 -6.038272E-01 5.343943E-01
    outer loop
      vertex 1.459106E+00 9.556405E+00 7.755572E+00
      vertex 1.570476E+00 5.440540E+00 3.228199E+00
      vertex 3.037519E+00 5.567566E+00 4.995411E+00
    endloop
  endfacet
  facet normal 7.770457E-01 4.536318E-01 -4.363693E-01
    outer loop
      vertex -2.392122E+00 -1.662399E+00 1.452558E+01
      vertex -1.337520E+00 -6.098359E-01 1.749771E+01
      vertex 2.124064E+00 -7.781785E+00 1.620611E+01
    endloop
  endfacet
  facet normal 9.503377E-01 9.194801E-02 -2.973278E-01
    outer loop
      vertex 5.260059E+00 2.969850E+01 2.297775E+01
      vertex 6.922637E+00 3.021974E+01 2.845297E+01
      vertex 6.210729E+00 2.709984E+01 2.521271E+01
    endloop
  endfacet
  facet normal 3.037478E-01 9.506710E-01 6.294493E-02
    outer loop
      vertex 2.124064E+00 -7.781785E+00 1.620611E+01
      vertex 5.918286E+00 -9.023537E+00 1.665112E+01
      vertex 7.873002E+00 -9.639979E+00 1.652869E+01
    endloop
  endfacet
  facet normal 3.066506E-01 9.516817E-01 1.635199E-02
    outer loop
      vertex 5.918286E+00 -9.023537E+00 1.665112E+01
      vertex 4.783104E+00 -8.689346E+00 1.848952E+01
      vertex 7.873002E+00 -9.684957E+00 1.848859E+01
    endloop
  endfacet
  facet normal 3.019343E-01 9.530778E-01 2.187180E-02
    outer loop
      vertex 7.873002E+00 -9.684957E+00 1.848859E+01
      vertex 7.873002E+00 -9.639979E+00 1.652869E+01
      vertex 5.918286E+00 -9.023537E+00 1.665112E+01
    endloop
  endfacet
  facet normal 2.918687E-01 9.559052E-01 3.252574E-02
    outer loop
      vertex 4.985608E+00 -8.806319E+00 2.099211E+01
      vertex 6.485684E+00 -9.345484E+00 2.337683E+01
      vertex 7.873002E+00 -9.772491E+00 2.347717E+01
    endloop
  endfacet
  facet normal 3.049554E-01 9.522340E-01 1.589290E-02
    outer loop
      vertex 7.873002E+00 -9.772491E+00 2.347717E+01
      vertex 7.873002E+00 -9.731000E+00 2.099124E+01
      vertex 4.985608E+00 -8.806319E+00 2.099211E+01
    endloop
  endfacet
  facet normal 3.049703E-01 9.522841E-01 1.217141E-02
    outer loop
      vertex 6.230495E+00 -9.190197E+00 1.983423E+01
      vertex 4.985608E+00 -8.806319E+00 2.099211E+01
      vertex 7.873002E+00 -9.731000E+00 2.099124E+01
    endloop
  endfacet
  facet normal 3.015226E-01 9.532977E-01 1.753963E-02
    outer loop
      vertex 7.873002E+00 -9.731000E+00 2.099124E+01
      vertex 7.873002E+00 -9.709703E+00 1.983375E+01
      vertex 6.230495E+00 -9.190197E+00 1.983423E+01
    endloop
  endfacet
  facet normal 3.014321E-01 9.529995E-01 3.050480E-02
    outer loop
      vertex 4.783104E+00 -8.689346E+00 1.848952E+01
      vertex 6.230495E+00 -9.190197E+00 1.983423E+01
      vertex 7.873002E+00 -9.709703E+00 1.983375E+01
    endloop
  endfacet
  facet normal 3.066449E-01 9.516630E-01 1.750776E-02
    outer loop
      vertex 7.873002E+00 -9.709703E+00 1.983375E+01
      vertex 7.873002E+00 -9.684957E+00 1.848859E+01
      vertex 4.783104E+00 -8.689346E+00 1.848952E+01
    endloop
  endfacet
  facet normal -5.907516E-01 6.231834E-01 5.124987E-01
    outer loop
      vertex 6.485684E+00 -9.345484E+00 2.337683E+01
      vertex 4.985608E+00 -8.806319E+00 2.099211E+01
      vertex 3.907549E+00 -1.004076E+01 2.125048E+01
    endloop
  endfacet
  facet normal -9.758164E-01 1.134056E-01 1.868729E-01
    outer loop
      vertex 1.570476E+00 5.440540E+00 3.228199E+00
      vertex 8.317752E-01 -3.474779E+00 4.781185E+00
      vertex 1.327909E+00 -4.754704E+00 8.148637E+00
    endloop
  endfacet
  facet normal -7.434323E-01 3.049616E-01 5.952368E-01
    outer loop
      vertex 1.327909E+00 -4.754704E+00 8.148637E+00
      vertex 3.037519E+00 5.567566E+00 4.995411E+00
      vertex 1.570476E+00 5.440540E+00 3.228199E+00
    endloop
  endfacet
  facet normal 9.139885E-01 -2.772299E-02 4.047919E-01
    outer loop
      vertex 5.333638E+00 8.327760E+00 -7.629395E-06
      vertex 3.037519E+00 5.567566E+00 4.995411E+00
      vertex 1.327909E+00 -4.754704E+00 8.148637E+00
    endloop
  endfacet
  facet normal 9.614928E-01 -2.725904E-01 3.501520E-02
    outer loop
      vertex 1.327909E+00 -4.754704E+00 8.148637E+00
      vertex 3.156504E+00 6.484767E-01 -7.629395E-06
      vertex 5.333638E+00 8.327760E+00 -7.629395E-06
    endloop
  endfacet
  facet normal 3.017484E-01 7.560811E-01 5.807661E-01
    outer loop
      vertex 1.327909E+00 -4.754704E+00 8.148637E+00
      vertex 7.873002E+00 -6.231907E+00 6.671129E+00
      vertex 7.873002E+00 -1.107627E+00 -7.629395E-06
    endloop
  endfacet
  facet normal 2.858949E-01 7.678489E-01 5.732994E-01
    outer loop
      vertex 7.873002E+00 -1.107627E+00 -7.629395E-06
      vertex 3.156504E+00 6.484767E-01 -7.629395E-06
      vertex 1.327909E+00 -4.754704E+00 8.148637E+00
    endloop
  endfacet
  facet normal 4.743266E-01 7.295100E-01 -4.927773E-01
    outer loop
      vertex 3.291585E+00 -7.796353E+00 2.323664E+01
      vertex 4.327841E-01 -3.406286E+00 2.698395E+01
      vertex 8.067703E-02 -2.849751E-01 3.126583E+01
    endloop
  endfacet
  facet normal 4.094613E-01 7.421823E-01 -5.305722E-01
    outer loop
      vertex 8.067703E-02 -2.849751E-01 3.126583E+01
      vertex 5.288792E+00 -6.492831E+00 2.660136E+01
      vertex 3.291585E+00 -7.796353E+00 2.323664E+01
    endloop
  endfacet
  facet normal 3.900296E-01 7.567059E-01 -5.246646E-01
    outer loop
      vertex 6.485684E+00 -9.345484E+00 2.337683E+01
      vertex 3.291585E+00 -7.796353E+00 2.323664E+01
      vertex 5.288792E+00 -6.492831E+00 2.660136E+01
    endloop
  endfacet
  facet normal 3.809917E-01 7.581087E-01 -5.292603E-01
    outer loop
      vertex 5.288792E+00 -6.492831E+00 2.660136E+01
      vertex 7.873002E+00 -7.468148E+00 2.706459E+01
      vertex 6.485684E+00 -9.345484E+00 2.337683E+01
    endloop
  endfacet
  facet normal 2.856392E-01 8.063221E-01 -5.179333E-01
    outer loop
      vertex 7.873002E+00 -9.772491E+00 2.347717E+01
      vertex 6.485684E+00 -9.345484E+00 2.337683E+01
      vertex 7.873002E+00 -7.468148E+00 2.706459E+01
    endloop
  endfacet
  facet normal 5.502074E-01 8.059668E-01 -2.183789E-01
    outer loop
      vertex 1.178592E+00 -5.929452E+00 4.712659E+01
      vertex 7.873002E+00 -9.761865E+00 4.984900E+01
      vertex 3.910917E+00 -8.420903E+00 4.481556E+01
    endloop
  endfacet
  facet normal 5.549378E-01 8.046048E-01 -2.113177E-01
    outer loop
      vertex 3.910917E+00 -8.420903E+00 4.481556E+01
      vertex 1.562870E+00 -6.694454E+00 4.522295E+01
      vertex 1.178592E+00 -5.929452E+00 4.712659E+01
    endloop
  endfacet
  facet normal 5.546637E-01 8.045803E-01 -2.121292E-01
    outer loop
      vertex 2.097929E+00 -8.373305E+00 4.026119E+01
      vertex -1.346262E+00 -6.205164E+00 3.947900E+01
      vertex 1.178592E+00 -5.929452E+00 4.712659E+01
    endloop
  endfacet
  facet normal 5.466084E-01 8.093429E-01 -2.149032E-01
    outer loop
      vertex 1.178592E+00 -5.929452E+00 4.712659E+01
      vertex 1.562870E+00 -6.694454E+00 4.522295E+01
      vertex 2.097929E+00 -8.373305E+00 4.026119E+01
    endloop
  endfacet
  facet normal 5.520710E-01 8.041601E-01 -2.203272E-01
    outer loop
      vertex 3.910917E+00 -8.420903E+00 4.481556E+01
      vertex 7.873002E+00 -9.761865E+00 4.984900E+01
      vertex 7.873002E+00 -1.204314E+01 4.152272E+01
    endloop
  endfacet
  facet normal 5.576675E-01 8.025751E-01 -2.118497E-01
    outer loop
      vertex 7.873002E+00 -1.204314E+01 4.152272E+01
      vertex 3.946122E+00 -9.542484E+00 4.065921E+01
      vertex 3.910917E+00 -8.420903E+00 4.481556E+01
    endloop
  endfacet
  facet normal 9.704971E-01 1.172758E-01 -2.106696E-01
    outer loop
      vertex -1.346262E+00 -6.205164E+00 3.947900E+01
      vertex -2.099958E+00 -5.931609E+00 3.615922E+01
      vertex -2.881297E+00 1.719835E+00 3.681922E+01
    endloop
  endfacet
  facet normal 8.067367E-01 5.752528E-01 -1.351300E-01
    outer loop
      vertex 3.941162E+00 -1.381451E+01 3.866740E+01
      vertex 3.223838E+00 -1.380404E+01 3.442951E+01
      vertex -2.099958E+00 -5.931609E+00 3.615922E+01
    endloop
  endfacet
  facet normal 8.067612E-01 5.750668E-01 -1.357738E-01
    outer loop
      vertex -2.099958E+00 -5.931609E+00 3.615922E+01
      vertex -1.346262E+00 -6.205164E+00 3.947900E+01
      vertex 3.941162E+00 -1.381451E+01 3.866740E+01
    endloop
  endfacet
  facet normal 8.887693E-01 5.147100E-02 4.554557E-01
    outer loop
      vertex 8.067703E-02 -2.849751E-01 3.126583E+01
      vertex -2.881297E+00 1.719835E+00 3.681922E+01
      vertex -2.099958E+00 -5.931609E+00 3.615922E+01
    endloop
  endfacet
  facet normal 8.185719E-01 3.375160E-01 4.647827E-01
    outer loop
      vertex 8.067703E-02 -2.849751E-01 3.126583E+01
      vertex 4.847958E+00 -9.335992E+00 2.944240E+01
      vertex 5.288792E+00 -6.492831E+00 2.660136E+01
    endloop
  endfacet
  facet normal 4.125230E-01 4.020012E-01 -8.174471E-01
    outer loop
      vertex 7.873002E+00 -1.204314E+01 4.152272E+01
      vertex 7.873002E+00 -1.477258E+01 4.018044E+01
      vertex 3.941162E+00 -1.381451E+01 3.866740E+01
    endloop
  endfacet
  facet normal 4.239916E-01 3.823047E-01 -8.210202E-01
    outer loop
      vertex 3.941162E+00 -1.381451E+01 3.866740E+01
      vertex 3.946122E+00 -9.542484E+00 4.065921E+01
      vertex 7.873002E+00 -1.204314E+01 4.152272E+01
    endloop
  endfacet
  facet normal 4.196082E-01 3.831706E-01 -8.228665E-01
    outer loop
      vertex 2.097929E+00 -8.373305E+00 4.026119E+01
      vertex 3.946122E+00 -9.542484E+00 4.065921E+01
      vertex 3.941162E+00 -1.381451E+01 3.866740E+01
    endloop
  endfacet
  facet normal 4.278286E-01 3.845260E-01 -8.179868E-01
    outer loop
      vertex 3.941162E+00 -1.381451E+01 3.866740E+01
      vertex -1.346262E+00 -6.205164E+00 3.947900E+01
      vertex 2.097929E+00 -8.373305E+00 4.026119E+01
    endloop
  endfacet
  facet normal 7.746429E-01 4.199739E-01 4.728111E-01
    outer loop
      vertex 3.223838E+00 -1.380404E+01 3.442951E+01
      vertex 3.658058E+00 -1.161032E+01 3.176952E+01
      vertex -2.099958E+00 -5.931609E+00 3.615922E+01
    endloop
  endfacet
  facet normal 5.695302E-01 6.585018E-01 4.919458E-01
    outer loop
      vertex 1.562870E+00 -6.694454E+00 4.522295E+01
      vertex 3.910917E+00 -8.420903E+00 4.481556E+01
      vertex 3.459738E+00 -7.039381E+00 4.348864E+01
    endloop
  endfacet
  facet normal 6.194949E-01 5.394626E-01 5.702686E-01
    outer loop
      vertex 3.459738E+00 -7.039381E+00 4.348864E+01
      vertex 2.205635E+00 -5.694691E+00 4.357895E+01
      vertex 1.562870E+00 -6.694454E+00 4.522295E+01
    endloop
  endfacet
  facet normal 9.942102E-01 1.055623E-01 -2.006470E-02
    outer loop
      vertex 3.910917E+00 -8.420903E+00 4.481556E+01
      vertex 3.946122E+00 -9.542484E+00 4.065921E+01
      vertex 3.654094E+00 -6.770725E+00 4.077166E+01
    endloop
  endfacet
  facet normal 9.113802E-01 3.980633E-01 1.045556E-01
    outer loop
      vertex 3.654094E+00 -6.770725E+00 4.077166E+01
      vertex 3.459738E+00 -7.039381E+00 4.348864E+01
      vertex 3.910917E+00 -8.420903E+00 4.481556E+01
    endloop
  endfacet
  facet normal 2.876752E-01 1.318074E-01 -9.486147E-01
    outer loop
      vertex 3.946122E+00 -9.542484E+00 4.065921E+01
      vertex 2.097929E+00 -8.373305E+00 4.026119E+01
      vertex 2.531975E+00 -6.413906E+00 4.066507E+01
    endloop
  endfacet
  facet normal 1.107953E-01 5.193810E-02 -9.924852E-01
    outer loop
      vertex 2.531975E+00 -6.413906E+00 4.066507E+01
      vertex 3.654094E+00 -6.770725E+00 4.077166E+01
      vertex 3.946122E+00 -9.542484E+00 4.065921E+01
    endloop
  endfacet
  facet normal -9.393945E-01 2.810174E-01 -1.963855E-01
    outer loop
      vertex 2.097929E+00 -8.373305E+00 4.026119E+01
      vertex 1.562870E+00 -6.694454E+00 4.522295E+01
      vertex 2.205635E+00 -5.694691E+00 4.357895E+01
    endloop
  endfacet
  facet normal -9.546543E-01 2.460303E-01 -1.676430E-01
    outer loop
      vertex 2.205635E+00 -5.694691E+00 4.357895E+01
      vertex 2.531975E+00 -6.413906E+00 4.066507E+01
      vertex 2.097929E+00 -8.373305E+00 4.026119E+01
    endloop
  endfacet
  facet normal 1.329753E-01 6.901732E-01 7.113217E-01
    outer loop
      vertex 7.873002E+00 -7.468148E+00 2.706459E+01
      vertex 5.288792E+00 -6.492831E+00 2.660136E+01
      vertex 4.847958E+00 -9.335992E+00 2.944240E+01
    endloop
  endfacet
  facet normal 7.343329E-01 2.598458E-01 6.270849E-01
    outer loop
      vertex 8.067703E-02 -2.849751E-01 3.126583E+01
      vertex -2.099958E+00 -5.931609E+00 3.615922E+01
      vertex 3.658058E+00 -1.161032E+01 3.176952E+01
    endloop
  endfacet
  facet normal 7.331840E-01 2.595481E-01 6.285506E-01
    outer loop
      vertex 3.658058E+00 -1.161032E+01 3.176952E+01
      vertex 4.847958E+00 -9.335992E+00 2.944240E+01
      vertex 8.067703E-02 -2.849751E-01 3.126583E+01
    endloop
  endfacet
  facet normal 0.000000E+00 7.203603E-01 -6.936001E-01
    outer loop
      vertex 6.210729E+00 2.709984E+01 2.521271E+01
      vertex 6.922637E+00 3.021974E+01 2.845297E+01
      vertex 7.873002E+00 3.021974E+01 2.845297E+01
    endloop
  endfacet
  facet normal 9.516804E-03 7.178839E-01 -6.960978E-01
    outer loop
      vertex 7.873002E+00 3.021974E+01 2.845297E+01
      vertex 7.873002E+00 2.708583E+01 2.522098E+01
      vertex 6.210729E+00 2.709984E+01 2.521271E+01
    endloop
  endfacet
  facet normal 9.717148E-03 9.168101E-01 -3.992053E-01
    outer loop
      vertex 6.210729E+00 2.709984E+01 2.521271E+01
      vertex 7.873002E+00 2.708583E+01 2.522098E+01
      vertex 7.873002E+00 2.425284E+01 1.871477E+01
    endloop
  endfacet
  facet normal -0.000000E+00 -9.683718E-01 -2.495117E-01
    outer loop
      vertex 6.922637E+00 3.021974E+01 2.845297E+01
      vertex 7.873002E+00 3.220989E+01 2.072906E+01
      vertex 7.873002E+00 3.021974E+01 2.845297E+01
    endloop
  endfacet
  facet normal 6.572986E-01 5.693362E-01 4.937761E-01
    outer loop
      vertex 2.124064E+00 -7.781785E+00 1.620611E+01
      vertex -2.676959E-01 -7.426274E+00 1.898003E+01
      vertex 2.399024E+00 -9.081004E+00 1.733813E+01
    endloop
  endfacet
  facet normal 1.322608E-01 6.669177E-01 7.332993E-01
    outer loop
      vertex 2.124064E+00 -7.781785E+00 1.620611E+01
      vertex 2.399024E+00 -9.081004E+00 1.733813E+01
      vertex 5.918286E+00 -9.023537E+00 1.665112E+01
    endloop
  endfacet
  facet normal -4.553173E-01 7.831488E-01 -4.235141E-01
    outer loop
      vertex 5.918286E+00 -9.023537E+00 1.665112E+01
      vertex 2.713599E+00 -9.634350E+00 1.896696E+01
      vertex 4.783104E+00 -8.689346E+00 1.848952E+01
    endloop
  endfacet
  facet normal 4.569289E-02 9.485193E-01 3.134061E-01
    outer loop
      vertex 2.713599E+00 -9.634350E+00 1.896696E+01
      vertex 5.918286E+00 -9.023537E+00 1.665112E+01
      vertex 2.399024E+00 -9.081004E+00 1.733813E+01
    endloop
  endfacet
  facet normal 5.883391E-01 7.934391E-01 1.559213E-01
    outer loop
      vertex 2.399024E+00 -9.081004E+00 1.733813E+01
      vertex -2.676959E-01 -7.426274E+00 1.898003E+01
      vertex 2.713599E+00 -9.634350E+00 1.896696E+01
    endloop
  endfacet
  facet normal 1.747217E-01 2.746816E-01 -9.455276E-01
    outer loop
      vertex 3.291585E+00 -7.796353E+00 2.323664E+01
      vertex 6.485684E+00 -9.345484E+00 2.337683E+01
      vertex 1.977329E+00 -8.947358E+00 2.265940E+01
    endloop
  endfacet
  facet normal 6.191013E-01 6.362873E-01 -4.602739E-01
    outer loop
      vertex 7.873002E+00 2.643650E+01 1.564481E+01
      vertex 7.873002E+00 2.292252E+01 1.078706E+01
      vertex 4.465139E+00 2.492690E+01 8.974107E+00
    endloop
  endfacet
  facet normal 5.735375E-01 6.857038E-01 -4.481798E-01
    outer loop
      vertex 4.465139E+00 2.492690E+01 8.974107E+00
      vertex 6.193508E+00 2.789402E+01 1.572553E+01
      vertex 7.873002E+00 2.643650E+01 1.564481E+01
    endloop
  endfacet
  facet normal 0.000000E+00 0.000000E+00 1.000000E+00
    outer loop
      vertex 2.157185E+01 -7.243950E+00 -7.629395E-06
      vertex 2.196555E+01 -1.272704E+00 -7.629395E-06
      vertex 1.673944E+01 -2.532270E+00 -7.629395E-06
    endloop
  endfacet
  facet normal 0.000000E+00 0.000000E+00 1.000000E+00
    outer loop
      vertex 1.673944E+01 -2.532270E+00 -7.629395E-06
      vertex 1.989963E+01 -6.722295E+00 -7.629395E-06
      vertex 2.157185E+01 -7.243950E+00 -7.629395E-06
    endloop
  endfacet
  facet normal -0.000000E+00 0.000000E+00 1.000000E+00
    outer loop
      vertex 1.989963E+01 -6.722295E+00 -7.629395E-06
      vertex 1.673944E+01 -2.532270E+00 -7.629395E-06
      vertex 1.904836E+01 -9.347109E+00 -7.629395E-06
    endloop
  endfacet
  facet normal 0.000000E+00 0.000000E+00 1.000000E+00
    outer loop
      vertex 1.904836E+01 -9.347109E+00 -7.629395E-06
      vertex 1.673944E+01 -2.532270E+00 -7.629395E-06
      vertex 1.711059E+01 -7.325202E+00 -7.629395E-06
    endloop
  endfacet
  facet normal 0.000000E+00 0.000000E+00 1.000000E+00
    outer loop
      vertex 1.711059E+01 -7.325202E+00 -7.629395E-06
      vertex 1.673944E+01 -2.532270E+00 -7.629395E-06
      vertex 1.381192E+01 -4.122311E+00 -7.629395E-06
    endloop
  endfacet
  facet normal 0.000000E+00 0.000000E+00 1.000000E+00
    outer loop
      vertex 1.381192E+01 -4.122311E+00 -7.629395E-06
      vertex 1.577027E+01 -8.663794E+00 -7.629395E-06
      vertex 1.711059E+01 -7.325202E+00 -7.629395E-06
    endloop
  endfacet
  facet normal 0.000000E+00 -0.000000E+00 1.000000E+00
    outer loop
      vertex 1.751517E+01 4.712646E+00 -7.629395E-06
      vertex 1.673944E+01 -2.532270E+00 -7.629395E-06
      vertex 2.196555E+01 -1.272704E+00 -7.629395E-06
    endloop
  endfacet
  facet normal -0.000000E+00 0.000000E+00 1.000000E+00
    outer loop
      vertex 1.673944E+01 -2.532270E+00 -7.629395E-06
      vertex 1.347276E+01 4.520051E+00 -7.629395E-06
      vertex 1.381192E+01 -4.122311E+00 -7.629395E-06
    endloop
  endfacet
  facet normal 0.000000E+00 0.000000E+00 1.000000E+00
    outer loop
      vertex 1.673944E+01 -2.532270E+00 -7.629395E-06
      vertex 1.751517E+01 4.712646E+00 -7.629395E-06
      vertex 1.347276E+01 4.520051E+00 -7.629395E-06
    endloop
  endfacet
  facet normal -8.062860E-01 -2.961059E-01 -5.120783E-01
    outer loop
      vertex 2.196555E+01 -1.272704E+00 -7.629395E-06
      vertex 1.953964E+01 -2.621311E+00 4.599499E+00
      vertex 1.751580E+01 5.526250E+00 3.074848E+00
    endloop
  endfacet
  facet normal -7.926412E-01 -5.893648E-01 1.561061E-01
    outer loop
      vertex 1.751580E+01 5.526250E+00 3.074848E+00
      vertex 1.751517E+01 4.712646E+00 -7.629395E-06
      vertex 2.196555E+01 -1.272704E+00 -7.629395E-06
    endloop
  endfacet
  facet normal -8.692633E-01 9.963517E-02 -4.842046E-01
    outer loop
      vertex 2.157185E+01 -7.243950E+00 -7.629395E-06
      vertex 1.996873E+01 -6.983498E+00 2.931568E+00
      vertex 1.953964E+01 -2.621311E+00 4.599499E+00
    endloop
  endfacet
  facet normal -8.899852E-01 5.867900E-02 -4.521981E-01
    outer loop
      vertex 1.953964E+01 -2.621311E+00 4.599499E+00
      vertex 2.196555E+01 -1.272704E+00 -7.629395E-06
      vertex 2.157185E+01 -7.243950E+00 -7.629395E-06
    endloop
  endfacet
  facet normal 7.769608E-01 5.747182E-01 -2.569645E-01
    outer loop
      vertex 1.381192E+01 -4.122311E+00 -7.629395E-06
      vertex 1.491423E+01 -3.474779E+00 4.781185E+00
      vertex 1.706021E+01 -7.228958E+00 2.873344E+00
    endloop
  endfacet
  facet normal 7.839361E-01 3.380444E-01 -5.207400E-01
    outer loop
      vertex 1.706021E+01 -7.228958E+00 2.873344E+00
      vertex 1.577027E+01 -8.663794E+00 -7.629395E-06
      vertex 1.381192E+01 -4.122311E+00 -7.629395E-06
    endloop
  endfacet
  facet normal 9.737290E-01 4.168546E-02 -2.238618E-01
    outer loop
      vertex 1.347276E+01 4.520051E+00 -7.629395E-06
      vertex 1.417553E+01 5.440540E+00 3.228199E+00
      vertex 1.491423E+01 -3.474779E+00 4.781185E+00
    endloop
  endfacet
  facet normal 9.725839E-01 3.816767E-02 -2.293989E-01
    outer loop
      vertex 1.491423E+01 -3.474779E+00 4.781185E+00
      vertex 1.381192E+01 -4.122311E+00 -7.629395E-06
      vertex 1.347276E+01 4.520051E+00 -7.629395E-06
    endloop
  endfacet
  facet normal 3.652484E-02 -9.660876E-01 2.556184E-01
    outer loop
      vertex 1.751517E+01 4.712646E+00 -7.629395E-06
      vertex 1.751580E+01 5.526250E+00 3.074848E+00
      vertex 1.417553E+01 5.440540E+00 3.228199E+00
    endloop
  endfacet
  facet normal 4.589256E-02 -9.632467E-01 2.646690E-01
    outer loop
      vertex 1.417553E+01 5.440540E+00 3.228199E+00
      vertex 1.347276E+01 4.520051E+00 -7.629395E-06
      vertex 1.751517E+01 4.712646E+00 -7.629395E-06
    endloop
  endfacet
  facet normal 2.968962E-01 9.517351E-01 7.780057E-02
    outer loop
      vertex 1.989963E+01 -6.722295E+00 -7.629395E-06
      vertex 1.996873E+01 -6.983498E+00 2.931568E+00
      vertex 2.157185E+01 -7.243950E+00 -7.629395E-06
    endloop
  endfacet
  facet normal -9.500424E-01 3.081145E-01 4.984860E-02
    outer loop
      vertex 1.904836E+01 -9.347109E+00 -7.629395E-06
      vertex 1.996873E+01 -6.983498E+00 2.931568E+00
      vertex 1.989963E+01 -6.722295E+00 -7.629395E-06
    endloop
  endfacet
  facet normal 7.219300E-01 6.918861E-01 -1.051727E-02
    outer loop
      vertex 1.711059E+01 -7.325202E+00 -7.629395E-06
      vertex 1.706021E+01 -7.228958E+00 2.873344E+00
      vertex 1.904836E+01 -9.347109E+00 -7.629395E-06
    endloop
  endfacet
  facet normal -7.061908E-01 7.071024E-01 -3.606636E-02
    outer loop
      vertex 1.577027E+01 -8.663794E+00 -7.629395E-06
      vertex 1.706021E+01 -7.228958E+00 2.873344E+00
      vertex 1.711059E+01 -7.325202E+00 -7.629395E-06
    endloop
  endfacet
  facet normal -5.395654E-02 7.855615E-01 -6.164266E-01
    outer loop
      vertex 1.904836E+01 -9.347109E+00 -7.629395E-06
      vertex 1.706021E+01 -7.228958E+00 2.873344E+00
      vertex 1.996873E+01 -6.983498E+00 2.931568E+00
    endloop
  endfacet
  facet normal -9.115936E-01 -1.577897E-01 3.796043E-01
    outer loop
      vertex 1.953964E+01 -2.621311E+00 4.599499E+00
      vertex 2.216854E+01 -4.340085E+00 1.019816E+01
      vertex 2.175896E+01 4.655909E+00 1.295395E+01
    endloop
  endfacet
  facet normal -9.125050E-01 -1.558940E-01 3.781952E-01
    outer loop
      vertex 2.175896E+01 4.655909E+00 1.295395E+01
      vertex 1.751580E+01 5.526250E+00 3.074848E+00
      vertex 1.953964E+01 -2.621311E+00 4.599499E+00
    endloop
  endfacet
  facet normal -1.587106E-01 9.304482E-01 3.302682E-01
    outer loop
      vertex 1.953964E+01 -2.621311E+00 4.599499E+00
      vertex 1.491423E+01 -3.474779E+00 4.781185E+00
      vertex 1.441809E+01 -4.754704E+00 8.148637E+00
    endloop
  endfacet
  facet normal -1.423183E-01 9.255134E-01 3.509565E-01
    outer loop
      vertex 1.441809E+01 -4.754704E+00 8.148637E+00
      vertex 2.216854E+01 -4.340085E+00 1.019816E+01
      vertex 1.953964E+01 -2.621311E+00 4.599499E+00
    endloop
  endfacet
  facet normal -6.551912E-01 1.938457E-01 -7.301700E-01
    outer loop
      vertex 2.216854E+01 -4.340085E+00 1.019816E+01
      vertex 1.813813E+01 -1.662399E+00 1.452558E+01
      vertex 1.764202E+01 6.549552E+00 1.715085E+01
    endloop
  endfacet
  facet normal -6.551902E-01 1.938465E-01 -7.301707E-01
    outer loop
      vertex 1.764202E+01 6.549552E+00 1.715085E+01
      vertex 2.175896E+01 4.655909E+00 1.295395E+01
      vertex 2.216854E+01 -4.340085E+00 1.019816E+01
    endloop
  endfacet
  facet normal -4.969479E-01 -8.621759E-01 -9.846604E-02
    outer loop
      vertex 2.175896E+01 4.655909E+00 1.295395E+01
      vertex 1.764202E+01 6.549552E+00 1.715085E+01
      vertex 1.428690E+01 9.556405E+00 7.755572E+00
    endloop
  endfacet
  facet normal -6.904220E-01 -5.267394E-01 4.958459E-01
    outer loop
      vertex 2.175896E+01 4.655909E+00 1.295395E+01
      vertex 1.428690E+01 9.556405E+00 7.755572E+00
      vertex 1.417553E+01 5.440540E+00 3.228199E+00
    endloop
  endfacet
  facet normal 2.109291E-02 -9.950875E-01 -9.672607E-02
    outer loop
      vertex 1.417553E+01 5.440540E+00 3.228199E+00
      vertex 1.751580E+01 5.526250E+00 3.074848E+00
      vertex 2.175896E+01 4.655909E+00 1.295395E+01
    endloop
  endfacet
  facet normal -7.164057E-01 -6.733215E-01 -1.827597E-01
    outer loop
      vertex 1.764202E+01 6.549552E+00 1.715085E+01
      vertex 1.426344E+01 7.786834E+00 2.583625E+01
      vertex 1.355136E+01 1.102603E+01 1.669374E+01
    endloop
  endfacet
  facet normal -7.398098E-01 -6.709967E-01 4.944639E-02
    outer loop
      vertex 1.355136E+01 1.102603E+01 1.669374E+01
      vertex 1.428690E+01 9.556405E+00 7.755572E+00
      vertex 1.764202E+01 6.549552E+00 1.715085E+01
    endloop
  endfacet
  facet normal -2.691426E-01 -9.144729E-01 -3.021616E-01
    outer loop
      vertex 1.426344E+01 7.786834E+00 2.583625E+01
      vertex 7.873002E+00 6.943192E+00 3.408159E+01
      vertex 7.873002E+00 1.394034E+01 1.290518E+01
    endloop
  endfacet
  facet normal -2.671091E-01 -9.147005E-01 -3.032749E-01
    outer loop
      vertex 7.873002E+00 1.394034E+01 1.290518E+01
      vertex 1.355136E+01 1.102603E+01 1.669374E+01
      vertex 1.426344E+01 7.786834E+00 2.583625E+01
    endloop
  endfacet
  facet normal 7.763492E-02 8.785431E-01 -4.713119E-01
    outer loop
      vertex 1.441809E+01 -4.754704E+00 8.148637E+00
      vertex 1.813813E+01 -1.662399E+00 1.452558E+01
      vertex 2.216854E+01 -4.340085E+00 1.019816E+01
    endloop
  endfacet
  facet normal -7.218562E-01 -3.667025E-01 -5.869010E-01
    outer loop
      vertex 7.873002E+00 1.394034E+01 1.290518E+01
      vertex 1.304150E+01 1.466823E+01 6.093409E+00
      vertex 1.428690E+01 9.556405E+00 7.755572E+00
    endloop
  endfacet
  facet normal -5.059638E-01 -8.568262E-01 9.924434E-02
    outer loop
      vertex 1.428690E+01 9.556405E+00 7.755572E+00
      vertex 1.355136E+01 1.102603E+01 1.669374E+01
      vertex 7.873002E+00 1.394034E+01 1.290518E+01
    endloop
  endfacet
  facet normal -2.059516E-01 -6.968220E-01 -6.870393E-01
    outer loop
      vertex 7.873002E+00 1.394034E+01 1.290518E+01
      vertex 7.873002E+00 1.882026E+01 7.955769E+00
      vertex 1.197947E+01 2.080705E+01 4.709705E+00
    endloop
  endfacet
  facet normal -7.540847E-01 -2.658296E-01 -6.005754E-01
    outer loop
      vertex 1.197947E+01 2.080705E+01 4.709705E+00
      vertex 1.304150E+01 1.466823E+01 6.093409E+00
      vertex 7.873002E+00 1.394034E+01 1.290518E+01
    endloop
  endfacet
  facet normal -8.807861E-01 -5.913828E-02 4.698070E-01
    outer loop
      vertex 1.197947E+01 2.080705E+01 4.709705E+00
      vertex 9.344884E+00 2.263077E+01 -7.629395E-06
      vertex 9.849381E+00 1.511695E+01 -7.629395E-06
    endloop
  endfacet
  facet normal -8.862196E-01 -4.949496E-02 4.606138E-01
    outer loop
      vertex 9.849381E+00 1.511695E+01 -7.629395E-06
      vertex 1.304150E+01 1.466823E+01 6.093409E+00
      vertex 1.197947E+01 2.080705E+01 4.709705E+00
    endloop
  endfacet
  facet normal 0.000000E+00 0.000000E+00 1.000000E+00
    outer loop
      vertex 9.344884E+00 2.263077E+01 -7.629395E-06
      vertex 7.873002E+00 2.247992E+01 -7.629395E-06
      vertex 7.873002E+00 1.968581E+01 -7.629395E-06
    endloop
  endfacet
  facet normal 0.000000E+00 0.000000E+00 1.000000E+00
    outer loop
      vertex 7.873002E+00 1.968581E+01 -7.629395E-06
      vertex 9.849381E+00 1.511695E+01 -7.629395E-06
      vertex 9.344884E+00 2.263077E+01 -7.629395E-06
    endloop
  endfacet
  facet normal -6.110504E-01 4.496441E-01 -6.514888E-01
    outer loop
      vertex 7.873002E+00 1.882026E+01 7.955769E+00
      vertex 7.873002E+00 2.292252E+01 1.078706E+01
      vertex 1.128086E+01 2.492690E+01 8.974107E+00
    endloop
  endfacet
  facet normal -6.758748E-01 4.716240E-01 -5.663604E-01
    outer loop
      vertex 1.128086E+01 2.492690E+01 8.974107E+00
      vertex 1.197947E+01 2.080705E+01 4.709705E+00
      vertex 7.873002E+00 1.882026E+01 7.955769E+00
    endloop
  endfacet
  facet normal -8.641409E-01 -4.103005E-01 2.914002E-01
    outer loop
      vertex 1.128086E+01 2.492690E+01 8.974107E+00
      vertex 9.125613E+00 2.830752E+01 7.342793E+00
      vertex 9.344884E+00 2.263077E+01 -7.629395E-06
    endloop
  endfacet
  facet normal -8.422077E-01 -4.500765E-01 2.968457E-01
    outer loop
      vertex 9.344884E+00 2.263077E+01 -7.629395E-06
      vertex 1.197947E+01 2.080705E+01 4.709705E+00
      vertex 1.128086E+01 2.492690E+01 8.974107E+00
    endloop
  endfacet
  facet normal -1.520509E-01 -7.613881E-01 6.302133E-01
    outer loop
      vertex 9.125613E+00 2.830752E+01 7.342793E+00
      vertex 7.873002E+00 2.847097E+01 7.238049E+00
      vertex 7.873002E+00 2.247992E+01 -7.629395E-06
    endloop
  endfacet
  facet normal 8.069935E-02 -7.873926E-01 6.111468E-01
    outer loop
      vertex 7.873002E+00 2.247992E+01 -7.629395E-06
      vertex 9.344884E+00 2.263077E+01 -7.629395E-06
      vertex 9.125613E+00 2.830752E+01 7.342793E+00
    endloop
  endfacet
  facet normal -9.728092E-01 -1.290473E-01 -1.923255E-01
    outer loop
      vertex 1.128086E+01 2.492690E+01 8.974107E+00
      vertex 9.552497E+00 2.789402E+01 1.572553E+01
      vertex 9.312229E+00 2.944192E+01 1.590222E+01
    endloop
  endfacet
  facet normal -8.583521E-01 -5.058437E-01 8.575461E-02
    outer loop
      vertex 9.312229E+00 2.944192E+01 1.590222E+01
      vertex 9.125613E+00 2.830752E+01 7.342793E+00
      vertex 1.128086E+01 2.492690E+01 8.974107E+00
    endloop
  endfacet
  facet normal -3.240713E-01 -9.326854E-01 1.583534E-01
    outer loop
      vertex 9.312229E+00 2.944192E+01 1.590222E+01
      vertex 7.873002E+00 2.994200E+01 1.590222E+01
      vertex 7.873002E+00 2.847097E+01 7.238049E+00
    endloop
  endfacet
  facet normal -1.391742E-01 -9.812842E-01 1.330859E-01
    outer loop
      vertex 7.873002E+00 2.847097E+01 7.238049E+00
      vertex 9.125613E+00 2.830752E+01 7.342793E+00
      vertex 9.312229E+00 2.944192E+01 1.590222E+01
    endloop
  endfacet
  facet normal -8.856325E-01 -7.343991E-02 4.585429E-01
    outer loop
      vertex 1.304150E+01 1.466823E+01 6.093409E+00
      vertex 9.849381E+00 1.511695E+01 -7.629395E-06
      vertex 1.041237E+01 8.327760E+00 -7.629395E-06
    endloop
  endfacet
  facet normal -8.880869E-01 -6.856837E-02 4.545329E-01
    outer loop
      vertex 1.041237E+01 8.327760E+00 -7.629395E-06
      vertex 1.428690E+01 9.556405E+00 7.755572E+00
      vertex 1.304150E+01 1.466823E+01 6.093409E+00
    endloop
  endfacet
  facet normal -2.523638E-01 -9.231396E-01 -2.900443E-01
    outer loop
      vertex 1.426344E+01 7.786834E+00 2.583625E+01
      vertex 1.329401E+01 5.867814E+00 3.278751E+01
      vertex 7.873002E+00 6.943192E+00 3.408159E+01
    endloop
  endfacet
  facet normal -1.739779E-01 -9.788256E-01 1.078529E-01
    outer loop
      vertex 1.329401E+01 5.867814E+00 3.278751E+01
      vertex 1.562570E+01 6.329054E+00 4.073479E+01
      vertex 7.873002E+00 7.960893E+00 4.303873E+01
    endloop
  endfacet
  facet normal -1.677440E-01 -9.795284E-01 1.112930E-01
    outer loop
      vertex 7.873002E+00 7.960893E+00 4.303873E+01
      vertex 7.873002E+00 6.943192E+00 3.408159E+01
      vertex 1.329401E+01 5.867814E+00 3.278751E+01
    endloop
  endfacet
  facet normal -3.274325E-01 -7.568547E-01 -5.656492E-01
    outer loop
      vertex 1.562570E+01 6.329054E+00 4.073479E+01
      vertex 1.469335E+01 8.051144E-01 4.866568E+01
      vertex 7.873002E+00 9.063573E-01 5.247825E+01
    endloop
  endfacet
  facet normal -3.274077E-01 -7.568717E-01 -5.656407E-01
    outer loop
      vertex 7.873002E+00 9.063573E-01 5.247825E+01
      vertex 7.873002E+00 7.960893E+00 4.303873E+01
      vertex 1.562570E+01 6.329054E+00 4.073479E+01
    endloop
  endfacet
  facet normal -4.672375E-01 2.052711E-01 -8.599726E-01
    outer loop
      vertex 1.469335E+01 8.051144E-01 4.866568E+01
      vertex 1.456741E+01 -5.929452E+00 4.712659E+01
      vertex 7.873002E+00 -9.761865E+00 4.984900E+01
    endloop
  endfacet
  facet normal -4.746081E-01 2.106273E-01 -8.546246E-01
    outer loop
      vertex 7.873002E+00 -9.761865E+00 4.984900E+01
      vertex 7.873002E+00 9.063573E-01 5.247825E+01
      vertex 1.469335E+01 8.051144E-01 4.866568E+01
    endloop
  endfacet
  facet normal -7.301002E-01 6.729397E-01 1.187679E-01
    outer loop
      vertex 1.209191E+01 -6.770725E+00 4.077166E+01
      vertex 1.228627E+01 -7.039381E+00 4.348864E+01
      vertex 1.354037E+01 -5.694691E+00 4.357895E+01
    endloop
  endfacet
  facet normal -3.139721E-01 9.293539E-01 -1.942237E-01
    outer loop
      vertex 1.354037E+01 -5.694691E+00 4.357895E+01
      vertex 1.321403E+01 -6.413906E+00 4.066507E+01
      vertex 1.209191E+01 -6.770725E+00 4.077166E+01
    endloop
  endfacet
  facet normal -2.700154E-01 9.618807E-01 -4.332687E-02
    outer loop
      vertex 1.180484E+01 -1.381451E+01 3.866740E+01
      vertex 1.252217E+01 -1.380404E+01 3.442951E+01
      vertex 7.873002E+00 -1.510763E+01 3.446286E+01
    endloop
  endfacet
  facet normal -2.568482E-01 9.647967E-01 -5.653684E-02
    outer loop
      vertex 7.873002E+00 -1.510763E+01 3.446286E+01
      vertex 7.873002E+00 -1.477258E+01 4.018044E+01
      vertex 1.180484E+01 -1.381451E+01 3.866740E+01
    endloop
  endfacet
  facet normal -1.917764E-01 7.415667E-01 6.428847E-01
    outer loop
      vertex 1.252217E+01 -1.380404E+01 3.442951E+01
      vertex 1.208795E+01 -1.161032E+01 3.176952E+01
      vertex 7.873002E+00 -1.276491E+01 3.184401E+01
    endloop
  endfacet
  facet normal -2.000677E-01 7.302390E-01 6.532411E-01
    outer loop
      vertex 7.873002E+00 -1.276491E+01 3.184401E+01
      vertex 7.873002E+00 -1.510763E+01 3.446286E+01
      vertex 1.252217E+01 -1.380404E+01 3.442951E+01
    endloop
  endfacet
  facet normal -1.680507E-01 6.606782E-01 7.316169E-01
    outer loop
      vertex 7.873002E+00 -1.276491E+01 3.184401E+01
      vertex 1.208795E+01 -1.161032E+01 3.176952E+01
      vertex 1.089805E+01 -9.335992E+00 2.944240E+01
    endloop
  endfacet
  facet normal -1.675353E-01 6.604504E-01 7.319407E-01
    outer loop
      vertex 1.089805E+01 -9.335992E+00 2.944240E+01
      vertex 7.873002E+00 -7.468148E+00 2.706459E+01
      vertex 7.873002E+00 -1.276491E+01 3.184401E+01
    endloop
  endfacet
  facet normal -0.000000E+00 0.000000E+00 1.000000E+00
    outer loop
      vertex 9.849381E+00 1.511695E+01 -7.629395E-06
      vertex 7.873002E+00 1.968581E+01 -7.629395E-06
      vertex 7.873002E+00 7.876338E+00 -7.629395E-06
    endloop
  endfacet
  facet normal 0.000000E+00 0.000000E+00 1.000000E+00
    outer loop
      vertex 7.873002E+00 7.876338E+00 -7.629395E-06
      vertex 1.041237E+01 8.327760E+00 -7.629395E-06
      vertex 9.849381E+00 1.511695E+01 -7.629395E-06
    endloop
  endfacet
  facet normal -8.326898E-01 -4.929631E-01 -2.522202E-01
    outer loop
      vertex 1.426344E+01 7.786834E+00 2.583625E+01
      vertex 2.065388E+01 -1.190751E+00 2.228524E+01
      vertex 1.930920E+01 -1.360336E+00 2.705607E+01
    endloop
  endfacet
  facet normal -8.326899E-01 -4.929632E-01 -2.522199E-01
    outer loop
      vertex 1.930920E+01 -1.360336E+00 2.705607E+01
      vertex 1.329401E+01 5.867814E+00 3.278751E+01
      vertex 1.426344E+01 7.786834E+00 2.583625E+01
    endloop
  endfacet
  facet normal -7.395434E-01 6.476086E-01 -1.835173E-01
    outer loop
      vertex 2.065388E+01 -1.190751E+00 2.228524E+01
      vertex 1.601370E+01 -7.426274E+00 1.898003E+01
      vertex 1.376867E+01 -8.947358E+00 2.265940E+01
    endloop
  endfacet
  facet normal -7.393271E-01 6.473271E-01 -1.853725E-01
    outer loop
      vertex 1.376867E+01 -8.947358E+00 2.265940E+01
      vertex 1.930920E+01 -1.360336E+00 2.705607E+01
      vertex 2.065388E+01 -1.190751E+00 2.228524E+01
    endloop
  endfacet
  facet normal -3.806259E-01 7.618818E-01 -5.240802E-01
    outer loop
      vertex 1.930920E+01 -1.360336E+00 2.705607E+01
      vertex 1.531322E+01 -3.406286E+00 2.698395E+01
      vertex 1.566533E+01 -2.849751E-01 3.126583E+01
    endloop
  endfacet
  facet normal -7.660686E-01 -1.401060E-01 -6.273031E-01
    outer loop
      vertex 1.566533E+01 -2.849751E-01 3.126583E+01
      vertex 1.329401E+01 5.867814E+00 3.278751E+01
      vertex 1.930920E+01 -1.360336E+00 2.705607E+01
    endloop
  endfacet
  facet normal 1.569542E-01 5.800688E-01 -7.993032E-01
    outer loop
      vertex 1.376867E+01 -8.947358E+00 2.265940E+01
      vertex 1.245442E+01 -7.796353E+00 2.323664E+01
      vertex 1.531322E+01 -3.406286E+00 2.698395E+01
    endloop
  endfacet
  facet normal -3.134386E-01 6.370084E-01 -7.042560E-01
    outer loop
      vertex 1.531322E+01 -3.406286E+00 2.698395E+01
      vertex 1.930920E+01 -1.360336E+00 2.705607E+01
      vertex 1.376867E+01 -8.947358E+00 2.265940E+01
    endloop
  endfacet
  facet normal -7.743101E-01 6.137633E-01 1.540733E-01
    outer loop
      vertex 1.441809E+01 -4.754704E+00 8.148637E+00
      vertex 1.362194E+01 -7.781785E+00 1.620611E+01
      vertex 1.813813E+01 -1.662399E+00 1.452558E+01
    endloop
  endfacet
  facet normal -2.759258E-01 9.084191E-01 3.140695E-01
    outer loop
      vertex 1.441809E+01 -4.754704E+00 8.148637E+00
      vertex 7.873002E+00 -6.231907E+00 6.671129E+00
      vertex 7.873002E+00 -9.639979E+00 1.652869E+01
    endloop
  endfacet
  facet normal -2.760031E-01 9.084170E-01 3.140078E-01
    outer loop
      vertex 7.873002E+00 -9.639979E+00 1.652869E+01
      vertex 1.362194E+01 -7.781785E+00 1.620611E+01
      vertex 1.441809E+01 -4.754704E+00 8.148637E+00
    endloop
  endfacet
  facet normal -7.590179E-01 2.587504E-01 5.974445E-01
    outer loop
      vertex 2.065388E+01 -1.190751E+00 2.228524E+01
      vertex 1.708352E+01 -6.098359E-01 1.749771E+01
      vertex 1.362194E+01 -7.781785E+00 1.620611E+01
    endloop
  endfacet
  facet normal -7.512614E-01 2.314218E-01 6.181022E-01
    outer loop
      vertex 1.362194E+01 -7.781785E+00 1.620611E+01
      vertex 1.601370E+01 -7.426274E+00 1.898003E+01
      vertex 2.065388E+01 -1.190751E+00 2.228524E+01
    endloop
  endfacet
  facet normal -9.074234E-01 1.631608E-01 3.872485E-01
    outer loop
      vertex 9.552497E+00 2.789402E+01 1.572553E+01
      vertex 1.042675E+01 2.668492E+01 1.828357E+01
      vertex 1.111504E+01 2.971852E+01 1.861824E+01
    endloop
  endfacet
  facet normal -8.091487E-01 -1.891019E-01 5.563441E-01
    outer loop
      vertex 1.111504E+01 2.971852E+01 1.861824E+01
      vertex 9.312229E+00 2.944192E+01 1.590222E+01
      vertex 9.552497E+00 2.789402E+01 1.572553E+01
    endloop
  endfacet
  facet normal -5.612850E-01 6.744152E-01 4.797118E-01
    outer loop
      vertex 7.873002E+00 2.643650E+01 1.564481E+01
      vertex 7.873002E+00 2.425284E+01 1.871477E+01
      vertex 1.042675E+01 2.668492E+01 1.828357E+01
    endloop
  endfacet
  facet normal -5.806500E-01 6.413057E-01 5.015701E-01
    outer loop
      vertex 1.042675E+01 2.668492E+01 1.828357E+01
      vertex 9.552497E+00 2.789402E+01 1.572553E+01
      vertex 7.873002E+00 2.643650E+01 1.564481E+01
    endloop
  endfacet
  facet normal -4.110075E-01 -8.383173E-01 3.581857E-01
    outer loop
      vertex 9.312229E+00 2.944192E+01 1.590222E+01
      vertex 1.111504E+01 2.971852E+01 1.861824E+01
      vertex 7.873002E+00 3.220989E+01 2.072906E+01
    endloop
  endfacet
  facet normal -2.999938E-01 -8.633888E-01 4.056643E-01
    outer loop
      vertex 7.873002E+00 3.220989E+01 2.072906E+01
      vertex 7.873002E+00 2.994200E+01 1.590222E+01
      vertex 9.312229E+00 2.944192E+01 1.590222E+01
    endloop
  endfacet
  facet normal -9.625187E-01 2.335871E-01 -1.378218E-01
    outer loop
      vertex 1.042675E+01 2.668492E+01 1.828357E+01
      vertex 9.535275E+00 2.709984E+01 2.521271E+01
      vertex 1.048595E+01 2.969850E+01 2.297775E+01
    endloop
  endfacet
  facet normal -9.625186E-01 2.335874E-01 -1.378220E-01
    outer loop
      vertex 1.048595E+01 2.969850E+01 2.297775E+01
      vertex 1.111504E+01 2.971852E+01 1.861824E+01
      vertex 1.042675E+01 2.668492E+01 1.828357E+01
    endloop
  endfacet
  facet normal -6.952092E-01 7.066288E-01 -1.317570E-01
    outer loop
      vertex 7.873002E+00 2.425284E+01 1.871477E+01
      vertex 9.535275E+00 2.709984E+01 2.521271E+01
      vertex 1.042675E+01 2.668492E+01 1.828357E+01
    endloop
  endfacet
  facet normal -6.327311E-01 -7.651281E-01 -1.192914E-01
    outer loop
      vertex 1.048595E+01 2.969850E+01 2.297775E+01
      vertex 8.823366E+00 3.021974E+01 2.845297E+01
      vertex 7.873002E+00 3.220989E+01 2.072906E+01
    endloop
  endfacet
  facet normal -6.452562E-01 -7.578353E-01 -9.659270E-02
    outer loop
      vertex 7.873002E+00 3.220989E+01 2.072906E+01
      vertex 1.111504E+01 2.971852E+01 1.861824E+01
      vertex 1.048595E+01 2.969850E+01 2.297775E+01
    endloop
  endfacet
  facet normal -4.102793E-02 9.871810E-01 1.542412E-01
    outer loop
      vertex 1.303240E+01 -9.634350E+00 1.896696E+01
      vertex 1.144699E+01 -9.846755E+00 1.990468E+01
      vertex 1.183845E+01 -1.004076E+01 2.125048E+01
    endloop
  endfacet
  facet normal -5.864956E-01 7.928544E-01 -1.655443E-01
    outer loop
      vertex 1.601370E+01 -7.426274E+00 1.898003E+01
      vertex 1.303240E+01 -9.634350E+00 1.896696E+01
      vertex 1.183845E+01 -1.004076E+01 2.125048E+01
    endloop
  endfacet
  facet normal -5.145146E-01 8.565406E-01 4.016194E-02
    outer loop
      vertex 1.601370E+01 -7.426274E+00 1.898003E+01
      vertex 1.183845E+01 -1.004076E+01 2.125048E+01
      vertex 1.376867E+01 -8.947358E+00 2.265940E+01
    endloop
  endfacet
  facet normal 2.479893E-01 7.897462E-01 5.610725E-01
    outer loop
      vertex 1.096290E+01 -8.689346E+00 1.848952E+01
      vertex 9.515508E+00 -9.190197E+00 1.983423E+01
      vertex 1.144699E+01 -9.846755E+00 1.990468E+01
    endloop
  endfacet
  facet normal 2.299352E-01 7.904080E-01 5.677896E-01
    outer loop
      vertex 1.144699E+01 -9.846755E+00 1.990468E+01
      vertex 1.303240E+01 -9.634350E+00 1.896696E+01
      vertex 1.096290E+01 -8.689346E+00 1.848952E+01
    endloop
  endfacet
  facet normal -1.513842E-01 8.705568E-01 -4.682026E-01
    outer loop
      vertex 1.183845E+01 -1.004076E+01 2.125048E+01
      vertex 9.260320E+00 -9.345484E+00 2.337683E+01
      vertex 1.376867E+01 -8.947358E+00 2.265940E+01
    endloop
  endfacet
  facet normal 3.201209E-01 9.463863E-01 4.330853E-02
    outer loop
      vertex 1.183845E+01 -1.004076E+01 2.125048E+01
      vertex 1.144699E+01 -9.846755E+00 1.990468E+01
      vertex 9.515508E+00 -9.190197E+00 1.983423E+01
    endloop
  endfacet
  facet normal 5.777341E-01 3.502323E-01 -7.372657E-01
    outer loop
      vertex 9.515508E+00 -9.190197E+00 1.983423E+01
      vertex 1.076040E+01 -8.806319E+00 2.099211E+01
      vertex 1.183845E+01 -1.004076E+01 2.125048E+01
    endloop
  endfacet
  facet normal -6.566995E-01 -6.308873E-01 4.131911E-01
    outer loop
      vertex 1.426344E+01 7.786834E+00 2.583625E+01
      vertex 1.708352E+01 -6.098359E-01 1.749771E+01
      vertex 2.065388E+01 -1.190751E+00 2.228524E+01
    endloop
  endfacet
  facet normal -9.345574E-01 5.587863E-02 -3.513973E-01
    outer loop
      vertex 1.764202E+01 6.549552E+00 1.715085E+01
      vertex 1.813813E+01 -1.662399E+00 1.452558E+01
      vertex 1.708352E+01 -6.098359E-01 1.749771E+01
    endloop
  endfacet
  facet normal -9.279364E-01 5.452242E-02 -3.687294E-01
    outer loop
      vertex 1.708352E+01 -6.098359E-01 1.749771E+01
      vertex 1.426344E+01 7.786834E+00 2.583625E+01
      vertex 1.764202E+01 6.549552E+00 1.715085E+01
    endloop
  endfacet
  facet normal -9.473672E-01 8.805931E-02 -3.078001E-01
    outer loop
      vertex 1.456741E+01 -5.929452E+00 4.712659E+01
      vertex 1.469335E+01 8.051144E-01 4.866568E+01
      vertex 1.862730E+01 1.719835E+00 3.681922E+01
    endloop
  endfacet
  facet normal -9.458977E-01 7.746801E-02 -3.150814E-01
    outer loop
      vertex 1.862730E+01 1.719835E+00 3.681922E+01
      vertex 1.709227E+01 -6.205164E+00 3.947900E+01
      vertex 1.456741E+01 -5.929452E+00 4.712659E+01
    endloop
  endfacet
  facet normal -7.316777E-01 -4.156142E-01 5.402893E-01
    outer loop
      vertex 1.329401E+01 5.867814E+00 3.278751E+01
      vertex 1.566533E+01 -2.849751E-01 3.126583E+01
      vertex 1.862730E+01 1.719835E+00 3.681922E+01
    endloop
  endfacet
  facet normal -7.038656E-01 -6.666698E-01 2.452030E-01
    outer loop
      vertex 1.862730E+01 1.719835E+00 3.681922E+01
      vertex 1.562570E+01 6.329054E+00 4.073479E+01
      vertex 1.329401E+01 5.867814E+00 3.278751E+01
    endloop
  endfacet
  facet normal -8.948777E-01 -3.099779E-01 -3.211039E-01
    outer loop
      vertex 1.562570E+01 6.329054E+00 4.073479E+01
      vertex 1.862730E+01 1.719835E+00 3.681922E+01
      vertex 1.469335E+01 8.051144E-01 4.866568E+01
    endloop
  endfacet
  facet normal -1.006004E-01 3.466835E-01 -9.325718E-01
    outer loop
      vertex 1.491423E+01 -3.474779E+00 4.781185E+00
      vertex 1.953964E+01 -2.621311E+00 4.599499E+00
      vertex 1.996873E+01 -6.983498E+00 2.931568E+00
    endloop
  endfacet
  facet normal -1.954357E-02 4.440583E-01 -8.957847E-01
    outer loop
      vertex 1.996873E+01 -6.983498E+00 2.931568E+00
      vertex 1.706021E+01 -7.228958E+00 2.873344E+00
      vertex 1.491423E+01 -3.474779E+00 4.781185E+00
    endloop
  endfacet
  facet normal 0.000000E+00 0.000000E+00 1.000000E+00
    outer loop
      vertex 7.873002E+00 7.876338E+00 -7.629395E-06
      vertex 7.873002E+00 -1.107627E+00 -7.629395E-06
      vertex 1.258950E+01 6.484766E-01 -7.629395E-06
    endloop
  endfacet
  facet normal 0.000000E+00 0.000000E+00 1.000000E+00
    outer loop
      vertex 1.258950E+01 6.484766E-01 -7.629395E-06
      vertex 1.041237E+01 8.327760E+00 -7.629395E-06
      vertex 7.873002E+00 7.876338E+00 -7.629395E-06
    endloop
  endfacet
  facet normal -8.966092E-01 5.036260E-02 4.399494E-01
    outer loop
      vertex 1.041237E+01 8.327760E+00 -7.629395E-06
      vertex 1.270848E+01 5.567566E+00 4.995411E+00
      vertex 1.428690E+01 9.556405E+00 7.755572E+00
    endloop
  endfacet
  facet normal 5.914518E-01 -6.038273E-01 5.343944E-01
    outer loop
      vertex 1.428690E+01 9.556405E+00 7.755572E+00
      vertex 1.270848E+01 5.567566E+00 4.995411E+00
      vertex 1.417553E+01 5.440540E+00 3.228199E+00
    endloop
  endfacet
  facet normal -7.770457E-01 4.536319E-01 -4.363693E-01
    outer loop
      vertex 1.813813E+01 -1.662399E+00 1.452558E+01
      vertex 1.362194E+01 -7.781785E+00 1.620611E+01
      vertex 1.708352E+01 -6.098359E-01 1.749771E+01
    endloop
  endfacet
  facet normal -9.503376E-01 9.194807E-02 -2.973281E-01
    outer loop
      vertex 1.048595E+01 2.969850E+01 2.297775E+01
      vertex 9.535275E+00 2.709984E+01 2.521271E+01
      vertex 8.823366E+00 3.021974E+01 2.845297E+01
    endloop
  endfacet
  facet normal -3.037478E-01 9.506710E-01 6.294458E-02
    outer loop
      vertex 1.362194E+01 -7.781785E+00 1.620611E+01
      vertex 7.873002E+00 -9.639979E+00 1.652869E+01
      vertex 9.827717E+00 -9.023537E+00 1.665112E+01
    endloop
  endfacet
  facet normal -3.019343E-01 9.530778E-01 2.187192E-02
    outer loop
      vertex 9.827717E+00 -9.023537E+00 1.665112E+01
      vertex 7.873002E+00 -9.639979E+00 1.652869E+01
      vertex 7.873002E+00 -9.684957E+00 1.848859E+01
    endloop
  endfacet
  facet normal -3.066506E-01 9.516817E-01 1.635215E-02
    outer loop
      vertex 7.873002E+00 -9.684957E+00 1.848859E+01
      vertex 1.096290E+01 -8.689346E+00 1.848952E+01
      vertex 9.827717E+00 -9.023537E+00 1.665112E+01
    endloop
  endfacet
  facet normal -3.049555E-01 9.522340E-01 1.589291E-02
    outer loop
      vertex 1.076040E+01 -8.806319E+00 2.099211E+01
      vertex 7.873002E+00 -9.731000E+00 2.099124E+01
      vertex 7.873002E+00 -9.772491E+00 2.347717E+01
    endloop
  endfacet
  facet normal -2.918686E-01 9.559052E-01 3.252585E-02
    outer loop
      vertex 7.873002E+00 -9.772491E+00 2.347717E+01
      vertex 9.260320E+00 -9.345484E+00 2.337683E+01
      vertex 1.076040E+01 -8.806319E+00 2.099211E+01
    endloop
  endfacet
  facet normal -3.015227E-01 9.532976E-01 1.753964E-02
    outer loop
      vertex 9.515508E+00 -9.190197E+00 1.983423E+01
      vertex 7.873002E+00 -9.709703E+00 1.983375E+01
      vertex 7.873002E+00 -9.731000E+00 2.099124E+01
    endloop
  endfacet
  facet normal -3.049704E-01 9.522840E-01 1.217151E-02
    outer loop
      vertex 7.873002E+00 -9.731000E+00 2.099124E+01
      vertex 1.076040E+01 -8.806319E+00 2.099211E+01
      vertex 9.515508E+00 -9.190197E+00 1.983423E+01
    endloop
  endfacet
  facet normal -3.066449E-01 9.516630E-01 1.750776E-02
    outer loop
      vertex 1.096290E+01 -8.689346E+00 1.848952E+01
      vertex 7.873002E+00 -9.684957E+00 1.848859E+01
      vertex 7.873002E+00 -9.709703E+00 1.983375E+01
    endloop
  endfacet
  facet normal -3.014322E-01 9.529995E-01 3.050435E-02
    outer loop
      vertex 7.873002E+00 -9.709703E+00 1.983375E+01
      vertex 9.515508E+00 -9.190197E+00 1.983423E+01
      vertex 1.096290E+01 -8.689346E+00 1.848952E+01
    endloop
  endfacet
  facet normal 5.907516E-01 6.231836E-01 5.124985E-01
    outer loop
      vertex 9.260320E+00 -9.345484E+00 2.337683E+01
      vertex 1.183845E+01 -1.004076E+01 2.125048E+01
      vertex 1.076040E+01 -8.806319E+00 2.099211E+01
    endloop
  endfacet
  facet normal 7.434321E-01 3.049615E-01 5.952371E-01
    outer loop
      vertex 1.417553E+01 5.440540E+00 3.228199E+00
      vertex 1.270848E+01 5.567566E+00 4.995411E+00
      vertex 1.441809E+01 -4.754704E+00 8.148637E+00
    endloop
  endfacet
  facet normal 9.758162E-01 1.134057E-01 1.868737E-01
    outer loop
      vertex 1.441809E+01 -4.754704E+00 8.148637E+00
      vertex 1.491423E+01 -3.474779E+00 4.781185E+00
      vertex 1.417553E+01 5.440540E+00 3.228199E+00
    endloop
  endfacet
  facet normal -9.614928E-01 -2.725905E-01 3.501476E-02
    outer loop
      vertex 1.041237E+01 8.327760E+00 -7.629395E-06
      vertex 1.258950E+01 6.484766E-01 -7.629395E-06
      vertex 1.441809E+01 -4.754704E+00 8.148637E+00
    endloop
  endfacet
  facet normal -9.139885E-01 -2.772285E-02 4.047919E-01
    outer loop
      vertex 1.441809E+01 -4.754704E+00 8.148637E+00
      vertex 1.270848E+01 5.567566E+00 4.995411E+00
      vertex 1.041237E+01 8.327760E+00 -7.629395E-06
    endloop
  endfacet
  facet normal -2.858949E-01 7.678490E-01 5.732993E-01
    outer loop
      vertex 1.441809E+01 -4.754704E+00 8.148637E+00
      vertex 1.258950E+01 6.484766E-01 -7.629395E-06
      vertex 7.873002E+00 -1.107627E+00 -7.629395E-06
    endloop
  endfacet
  facet normal -3.017485E-01 7.560810E-01 5.807661E-01
    outer loop
      vertex 7.873002E+00 -1.107627E+00 -7.629395E-06
      vertex 7.873002E+00 -6.231907E+00 6.671129E+00
      vertex 1.441809E+01 -4.754704E+00 8.148637E+00
    endloop
  endfacet
  facet normal -4.094613E-01 7.421823E-01 -5.305722E-01
    outer loop
      vertex 1.245442E+01 -7.796353E+00 2.323664E+01
      vertex 1.045721E+01 -6.492831E+00 2.660136E+01
      vertex 1.566533E+01 -2.849751E-01 3.126583E+01
    endloop
  endfacet
  facet normal -4.743267E-01 7.295100E-01 -4.927772E-01
    outer loop
      vertex 1.566533E+01 -2.849751E-01 3.126583E+01
      vertex 1.531322E+01 -3.406286E+00 2.698395E+01
      vertex 1.245442E+01 -7.796353E+00 2.323664E+01
    endloop
  endfacet
  facet normal -3.809917E-01 7.581087E-01 -5.292604E-01
    outer loop
      vertex 9.260320E+00 -9.345484E+00 2.337683E+01
      vertex 7.873002E+00 -7.468148E+00 2.706459E+01
      vertex 1.045721E+01 -6.492831E+00 2.660136E+01
    endloop
  endfacet
  facet normal -3.900297E-01 7.567059E-01 -5.246646E-01
    outer loop
      vertex 1.045721E+01 -6.492831E+00 2.660136E+01
      vertex 1.245442E+01 -7.796353E+00 2.323664E+01
      vertex 9.260320E+00 -9.345484E+00 2.337683E+01
    endloop
  endfacet
  facet normal -2.856392E-01 8.063221E-01 -5.179333E-01
    outer loop
      vertex 7.873002E+00 -9.772491E+00 2.347717E+01
      vertex 7.873002E+00 -7.468148E+00 2.706459E+01
      vertex 9.260320E+00 -9.345484E+00 2.337683E+01
    endloop
  endfacet
  facet normal -5.549379E-01 8.046048E-01 -2.113172E-01
    outer loop
      vertex 1.456741E+01 -5.929452E+00 4.712659E+01
      vertex 1.418313E+01 -6.694454E+00 4.522295E+01
      vertex 1.183509E+01 -8.420903E+00 4.481556E+01
    endloop
  endfacet
  facet normal -5.502073E-01 8.059669E-01 -2.183787E-01
    outer loop
      vertex 1.183509E+01 -8.420903E+00 4.481556E+01
      vertex 7.873002E+00 -9.761865E+00 4.984900E+01
      vertex 1.456741E+01 -5.929452E+00 4.712659E+01
    endloop
  endfacet
  facet normal -5.466046E-01 8.093451E-01 -2.149044E-01
    outer loop
      vertex 1.364807E+01 -8.373305E+00 4.026119E+01
      vertex 1.418313E+01 -6.694454E+00 4.522295E+01
      vertex 1.456741E+01 -5.929452E+00 4.712659E+01
    endloop
  endfacet
  facet normal -5.546634E-01 8.045805E-01 -2.121292E-01
    outer loop
      vertex 1.456741E+01 -5.929452E+00 4.712659E+01
      vertex 1.709227E+01 -6.205164E+00 3.947900E+01
      vertex 1.364807E+01 -8.373305E+00 4.026119E+01
    endloop
  endfacet
  facet normal -5.576675E-01 8.025750E-01 -2.118497E-01
    outer loop
      vertex 1.183509E+01 -8.420903E+00 4.481556E+01
      vertex 1.179988E+01 -9.542484E+00 4.065921E+01
      vertex 7.873002E+00 -1.204314E+01 4.152272E+01
    endloop
  endfacet
  facet normal -5.520710E-01 8.041601E-01 -2.203272E-01
    outer loop
      vertex 7.873002E+00 -1.204314E+01 4.152272E+01
      vertex 7.873002E+00 -9.761865E+00 4.984900E+01
      vertex 1.183509E+01 -8.420903E+00 4.481556E+01
    endloop
  endfacet
  facet normal -9.704973E-01 1.172755E-01 -2.106694E-01
    outer loop
      vertex 1.709227E+01 -6.205164E+00 3.947900E+01
      vertex 1.862730E+01 1.719835E+00 3.681922E+01
      vertex 1.784596E+01 -5.931609E+00 3.615922E+01
    endloop
  endfacet
  facet normal -8.067611E-01 5.750670E-01 -1.357735E-01
    outer loop
      vertex 1.180484E+01 -1.381451E+01 3.866740E+01
      vertex 1.709227E+01 -6.205164E+00 3.947900E+01
      vertex 1.784596E+01 -5.931609E+00 3.615922E+01
    endloop
  endfacet
  facet normal -8.067366E-01 5.752529E-01 -1.351302E-01
    outer loop
      vertex 1.784596E+01 -5.931609E+00 3.615922E+01
      vertex 1.252217E+01 -1.380404E+01 3.442951E+01
      vertex 1.180484E+01 -1.381451E+01 3.866740E+01
    endloop
  endfacet
  facet normal -8.887694E-01 5.147067E-02 4.554555E-01
    outer loop
      vertex 1.566533E+01 -2.849751E-01 3.126583E+01
      vertex 1.784596E+01 -5.931609E+00 3.615922E+01
      vertex 1.862730E+01 1.719835E+00 3.681922E+01
    endloop
  endfacet
  facet normal -8.185719E-01 3.375160E-01 4.647828E-01
    outer loop
      vertex 1.566533E+01 -2.849751E-01 3.126583E+01
      vertex 1.045721E+01 -6.492831E+00 2.660136E+01
      vertex 1.089805E+01 -9.335992E+00 2.944240E+01
    endloop
  endfacet
  facet normal -4.239915E-01 3.823047E-01 -8.210203E-01
    outer loop
      vertex 7.873002E+00 -1.204314E+01 4.152272E+01
      vertex 1.179988E+01 -9.542484E+00 4.065921E+01
      vertex 1.180484E+01 -1.381451E+01 3.866740E+01
    endloop
  endfacet
  facet normal -4.125232E-01 4.020011E-01 -8.174471E-01
    outer loop
      vertex 1.180484E+01 -1.381451E+01 3.866740E+01
      vertex 7.873002E+00 -1.477258E+01 4.018044E+01
      vertex 7.873002E+00 -1.204314E+01 4.152272E+01
    endloop
  endfacet
  facet normal -4.278282E-01 3.845260E-01 -8.179870E-01
    outer loop
      vertex 1.364807E+01 -8.373305E+00 4.026119E+01
      vertex 1.709227E+01 -6.205164E+00 3.947900E+01
      vertex 1.180484E+01 -1.381451E+01 3.866740E+01
    endloop
  endfacet
  facet normal -4.196081E-01 3.831706E-01 -8.228665E-01
    outer loop
      vertex 1.180484E+01 -1.381451E+01 3.866740E+01
      vertex 1.179988E+01 -9.542484E+00 4.065921E+01
      vertex 1.364807E+01 -8.373305E+00 4.026119E+01
    endloop
  endfacet
  facet normal -7.746428E-01 4.199739E-01 4.728111E-01
    outer loop
      vertex 1.252217E+01 -1.380404E+01 3.442951E+01
      vertex 1.784596E+01 -5.931609E+00 3.615922E+01
      vertex 1.208795E+01 -1.161032E+01 3.176952E+01
    endloop
  endfacet
  facet normal -6.194948E-01 5.394627E-01 5.702685E-01
    outer loop
      vertex 1.418313E+01 -6.694454E+00 4.522295E+01
      vertex 1.354037E+01 -5.694691E+00 4.357895E+01
      vertex 1.228627E+01 -7.039381E+00 4.348864E+01
    endloop
  endfacet
  facet normal -5.695302E-01 6.585017E-01 4.919459E-01
    outer loop
      vertex 1.228627E+01 -7.039381E+00 4.348864E+01
      vertex 1.183509E+01 -8.420903E+00 4.481556E+01
      vertex 1.418313E+01 -6.694454E+00 4.522295E+01
    endloop
  endfacet
  facet normal -9.113801E-01 3.980634E-01 1.045557E-01
    outer loop
      vertex 1.183509E+01 -8.420903E+00 4.481556E+01
      vertex 1.228627E+01 -7.039381E+00 4.348864E+01
      vertex 1.209191E+01 -6.770725E+00 4.077166E+01
    endloop
  endfacet
  facet normal -9.942102E-01 1.055622E-01 -2.006462E-02
    outer loop
      vertex 1.209191E+01 -6.770725E+00 4.077166E+01
      vertex 1.179988E+01 -9.542484E+00 4.065921E+01
      vertex 1.183509E+01 -8.420903E+00 4.481556E+01
    endloop
  endfacet
  facet normal -1.107952E-01 5.193809E-02 -9.924852E-01
    outer loop
      vertex 1.179988E+01 -9.542484E+00 4.065921E+01
      vertex 1.209191E+01 -6.770725E+00 4.077166E+01
      vertex 1.321403E+01 -6.413906E+00 4.066507E+01
    endloop
  endfacet
  facet normal -2.876752E-01 1.318074E-01 -9.486147E-01
    outer loop
      vertex 1.321403E+01 -6.413906E+00 4.066507E+01
      vertex 1.364807E+01 -8.373305E+00 4.026119E+01
      vertex 1.179988E+01 -9.542484E+00 4.065921E+01
    endloop
  endfacet
  facet normal 9.546543E-01 2.460303E-01 -1.676432E-01
    outer loop
      vertex 1.364807E+01 -8.373305E+00 4.026119E+01
      vertex 1.321403E+01 -6.413906E+00 4.066507E+01
      vertex 1.354037E+01 -5.694691E+00 4.357895E+01
    endloop
  endfacet
  facet normal 9.393946E-01 2.810171E-01 -1.963854E-01
    outer loop
      vertex 1.354037E+01 -5.694691E+00 4.357895E+01
      vertex 1.418313E+01 -6.694454E+00 4.522295E+01
      vertex 1.364807E+01 -8.373305E+00 4.026119E+01
    endloop
  endfacet
  facet normal -1.329753E-01 6.901731E-01 7.113217E-01
    outer loop
      vertex 7.873002E+00 -7.468148E+00 2.706459E+01
      vertex 1.089805E+01 -9.335992E+00 2.944240E+01
      vertex 1.045721E+01 -6.492831E+00 2.660136E+01
    endloop
  endfacet
  facet normal -7.331840E-01 2.595482E-01 6.285506E-01
    outer loop
      vertex 1.566533E+01 -2.849751E-01 3.126583E+01
      vertex 1.089805E+01 -9.335992E+00 2.944240E+01
      vertex 1.208795E+01 -1.161032E+01 3.176952E+01
    endloop
  endfacet
  facet normal -7.343328E-01 2.598458E-01 6.270849E-01
    outer loop
      vertex 1.208795E+01 -1.161032E+01 3.176952E+01
      vertex 1.784596E+01 -5.931609E+00 3.615922E+01
      vertex 1.566533E+01 -2.849751E-01 3.126583E+01
    endloop
  endfacet
  facet normal -9.516826E-03 7.178839E-01 -6.960978E-01
    outer loop
      vertex 9.535275E+00 2.709984E+01 2.521271E+01
      vertex 7.873002E+00 2.708583E+01 2.522098E+01
      vertex 7.873002E+00 3.021974E+01 2.845297E+01
    endloop
  endfacet
  facet normal 0.000000E+00 7.203603E-01 -6.936001E-01
    outer loop
      vertex 7.873002E+00 3.021974E+01 2.845297E+01
      vertex 8.823366E+00 3.021974E+01 2.845297E+01
      vertex 9.535275E+00 2.709984E+01 2.521271E+01
    endloop
  endfacet
  facet normal -9.717148E-03 9.168101E-01 -3.992053E-01
    outer loop
      vertex 9.535275E+00 2.709984E+01 2.521271E+01
      vertex 7.873002E+00 2.425284E+01 1.871477E+01
      vertex 7.873002E+00 2.708583E+01 2.522098E+01
    endloop
  endfacet
  facet normal 0.000000E+00 -9.683718E-01 -2.495117E-01
    outer loop
      vertex 8.823366E+00 3.021974E+01 2.845297E+01
      vertex 7.873002E+00 3.021974E+01 2.845297E+01
      vertex 7.873002E+00 3.220989E+01 2.072906E+01
    endloop
  endfacet
  facet normal -6.572982E-01 5.693365E-01 4.937764E-01
    outer loop
      vertex 1.362194E+01 -7.781785E+00 1.620611E+01
      vertex 1.334698E+01 -9.081004E+00 1.733813E+01
      vertex 1.601370E+01 -7.426274E+00 1.898003E+01
    endloop
  endfacet
  facet normal -1.322608E-01 6.669177E-01 7.332993E-01
    outer loop
      vertex 1.362194E+01 -7.781785E+00 1.620611E+01
      vertex 9.827717E+00 -9.023537E+00 1.665112E+01
      vertex 1.334698E+01 -9.081004E+00 1.733813E+01
    endloop
  endfacet
  facet normal 4.553174E-01 7.831486E-01 -4.235143E-01
    outer loop
      vertex 9.827717E+00 -9.023537E+00 1.665112E+01
      vertex 1.096290E+01 -8.689346E+00 1.848952E+01
      vertex 1.303240E+01 -9.634350E+00 1.896696E+01
    endloop
  endfacet
  facet normal -5.883387E-01 7.934394E-01 1.559214E-01
    outer loop
      vertex 1.303240E+01 -9.634350E+00 1.896696E+01
      vertex 1.601370E+01 -7.426274E+00 1.898003E+01
      vertex 1.334698E+01 -9.081004E+00 1.733813E+01
    endloop
  endfacet
  facet normal -4.569287E-02 9.485193E-01 3.134061E-01
    outer loop
      vertex 1.334698E+01 -9.081004E+00 1.733813E+01
      vertex 9.827717E+00 -9.023537E+00 1.665112E+01
      vertex 1.303240E+01 -9.634350E+00 1.896696E+01
    endloop
  endfacet
  facet normal -1.747217E-01 2.746815E-01 -9.455276E-01
    outer loop
      vertex 1.245442E+01 -7.796353E+00 2.323664E+01
      vertex 1.376867E+01 -8.947358E+00 2.265940E+01
      vertex 9.260320E+00 -9.345484E+00 2.337683E+01
    endloop
  endfacet
  facet normal -5.735372E-01 6.857041E-01 -4.481795E-01
    outer loop
      vertex 7.873002E+00 2.643650E+01 1.564481E+01
      vertex 9.552497E+00 2.789402E+01 1.572553E+01
      vertex 1.128086E+01 2.492690E+01 8.974107E+00
    endloop
  endfacet
  facet normal -6.191017E-01 6.362870E-01 -4.602738E-01
    outer loop
      vertex 1.128086E+01 2.492690E+01 8.974107E+00
      vertex 7.873002E+00 2.292252E+01 1.078706E+01
      vertex 7.873002E+00 2.643650E+01 1.564481E+01
    endloop
  endfacet
endsolid 
